<svg xmlns="http://www.w3.org/2000/svg" viewBox="0 0 200 400">
  <defs>
    <pattern id="a" data-name="New Pattern Swatch 6" width="200" height="200" patternTransform="translate(83 -16)" patternUnits="userSpaceOnUse" viewBox="0 0 200 200">
      <path fill="none" d="M0 0h200v200H0z"/>
      <path d="M160.7 146.68a20.4 20.4 0 1 1-29.14-18.41 1.72 1.72 0 0 0 0 1 1.43 1.43 0 0 0 1.93.65c1-.36.86-1.17.73-1.86a.92.92 0 0 0-.61-.65 20.35 20.35 0 0 1 27.06 19.26zm-29.7-9.54a1.25 1.25 0 0 0-1.86-.63 1.38 1.38 0 1 0 1.2 2.48 1.25 1.25 0 0 0 .66-1.85zm9.09 3.15c-.46-.53-1-1.14-1.91-.57a1.43 1.43 0 0 0-.68 1.92 1.37 1.37 0 0 0 1.94.51c.71-.35 1.13-1.33.67-1.86zM176.03 67.43l8.03.94.73-7.58-8.03-.94-.73 7.58z" fill="#f5279e"/>
      <path d="M137.91 200H95l-.69-1.6-10.76.46-4.27-9.86-10.76.46-3.91-9-2.4 1 4.63 10.71 10.76-.47 3.6 8.33H22.93a1.25 1.25 0 0 0-1.32 0h-9.45l-6.59-12.65a1 1 0 0 0 .74-.42 1.05 1.05 0 0 0-.22-1.63 1.16 1.16 0 0 0-1.57 0L0 176.69V44.53l39.39 7.7-5.78-11.1a1.33 1.33 0 0 0 .34-.29c.49-.58.35-1.15-.33-1.77A.77.77 0 0 0 32.5 39l-7.34-14.07a1.21 1.21 0 0 0-.4-1 1.4 1.4 0 0 0-.23-.19L12.16 0h9.45a.6.6 0 0 0-.18.21c-.25.53-.52 1.14.2 1.64a1.09 1.09 0 0 0 1.64-.13 1.07 1.07 0 0 0-.21-1.63L22.93 0h58.26l.67 1.55 10.76-.47L96.89 11l11.67-.5-.12-2.61-9.86.42L95 0h42.91L116.8 28.28 200 44.53v132.16l-2.67-5.11c.4-.52.25-1.06-.39-1.72a.53.53 0 0 0-.62-.22l-14.7-28.19-9.21 12.34a32.86 32.86 0 0 0-31.84-40l49.59-17.85L94 38.92 71.32 75.58a2.61 2.61 0 0 0-.13-.33 1.23 1.23 0 0 0-1.86-.61c-.77.48-1.08 1.07-.68 1.88a1.25 1.25 0 0 0 1.69.64l-4 6.44a1.61 1.61 0 0 0-.23.12c-.65.41-1 .91-.8 1.55l-19.52 31.64a1.6 1.6 0 0 0-1.45-.1 1.28 1.28 0 0 0-.78 1.83 1.21 1.21 0 0 0 .71.72L24.4 151.53a3 3 0 0 0-.07-1c-.13-.68-1.15-1-1.86-.66a1.37 1.37 0 0 0-.81 1.84 1.43 1.43 0 0 0 1.92.66 1.52 1.52 0 0 0 .39-.2l-2.81 4.55L43 148.91a1.85 1.85 0 0 0 .09.22 1.29 1.29 0 0 0 1.91.57 1.39 1.39 0 0 0 .73-1.76l11-3.95a2.26 2.26 0 0 0 .49-.12 1.89 1.89 0 0 0 .3-.16L101.1 128a1.35 1.35 0 0 0 .05.66 1.39 1.39 0 0 0 2 .71c.7-.35 1.12-1.32.66-1.85-.11-.12-.22-.25-.34-.37l10.4-3.74a1.48 1.48 0 0 0 1.56.09c.52-.24.72-.55.72-.91l3-1.08A33.13 33.13 0 0 0 112 130a1.61 1.61 0 0 0-.91.1 1.27 1.27 0 0 0-.77 1.84 1.46 1.46 0 0 0 .36.52 32.64 32.64 0 0 0-2.34 6.61 1.52 1.52 0 0 0-.46.12 1.31 1.31 0 0 0-.85 1.68 1.54 1.54 0 0 0 .78.83 32.88 32.88 0 0 0 48.46 33.74zm58.63-37.91a.87.87 0 0 0-1.43.09c-.5.57-.71 1.05-.08 1.58a1.12 1.12 0 0 0 1.71 0 1.09 1.09 0 0 0-.2-1.67zm-.53-7.93a1.14 1.14 0 1 0-1.49 1.72 1.14 1.14 0 1 0 1.49-1.72zM194 148a1.18 1.18 0 0 0 1.68-.11 1.13 1.13 0 0 0-.25-1.64c-.49-.4-1.37-.4-1.62.12s-.55 1.1.19 1.63zm-20.15-78.81l12 1.41L187 59l-12-1.4zM49.4 108.39c-.13-.69-1.15-1-1.86-.66a1.33 1.33 0 0 0-.78 1.84 1.35 1.35 0 0 0 1.89.67c1.01-.35.87-1.16.75-1.85zm3.15-9.1a1.25 1.25 0 0 0-1.87-.62 1.38 1.38 0 1 0 1.22 2.47 1.25 1.25 0 0 0 .64-1.85zm3.25-9c-.12-.68-1.15-1-1.86-.66a1.29 1.29 0 0 0-.77 1.84c.37.83 1 1 1.88.67 1-.4.86-1.21.74-1.9zm3.14-9.09a1.23 1.23 0 0 0-1.85-.63c-.78.46-1.09 1-.71 1.87s1.09 1 2.2.49c.81-.23.61-1.22.35-1.78zm19.28-31.9a1.28 1.28 0 0 0 1.87.66c.85-.35 1-.92.67-1.6-.4-.88-.84-1.38-1.79-.9a1.29 1.29 0 0 0-.75 1.78zM75 58.38a1.44 1.44 0 0 0 2 .62 1.38 1.38 0 1 0-1.23-2.47 1.45 1.45 0 0 0-.77 1.85zm-2.49 7.2c-.77.49-1.06 1.09-.65 1.89a1.29 1.29 0 0 0 1.92.54c.68-.35 1.1-1.35.65-1.87s-1.02-1.14-1.92-.56zM44.4 30.28l23.88 5.65 5.65-23.88-3.93-.92-4.73 20-20-4.73zM15.13.63c-.48-.4-1.39-.38-1.63.13s-.52 1.14.2 1.64a1.09 1.09 0 0 0 1.64-.13 1.07 1.07 0 0 0-.21-1.64zm7 9.1a1.08 1.08 0 0 0 1.64 0 1.07 1.07 0 0 0-.09-1.63 1 1 0 0 0-1.58.15c-.39.45-.61.97.04 1.49zM24.2 16a1 1 0 0 0-1.62.09 1 1 0 0 0 .12 1.62A1.14 1.14 0 1 0 24.2 16zm6.45 1.18A1.1 1.1 0 0 0 32.3 17a1.06 1.06 0 0 0-.19-1.63c-.5-.42-1.37-.42-1.63.1s-.56 1.18.17 1.68zm.35 7.75c.74.58 1.32.64 1.82.06a1.09 1.09 0 0 0-.15-1.64 1 1 0 0 0-1.62.1c-.33.4-.64 1.13-.05 1.48zm2.19 6.34a1 1 0 0 0-1.61.13c-.33.41-.64 1.15-.06 1.46.79.59 1.37.64 1.86.05a1.09 1.09 0 0 0-.17-1.64zm-30.3 131.9c.63.54 1.17.57 1.69.11.34-.3 0-1.55-.51-1.93a.87.87 0 0 0-1.2.31c-.3.45-.66 1.13.02 1.51zm.64 8a1.08 1.08 0 0 0 1.55.09 1.2 1.2 0 0 0 0-1.77c-.6-.66-1.17-.27-1.65.05s-.37 1.19.1 1.63zm2.08 6.26c-.6-.66-1.17-.27-1.65 0s-.36 1.19.12 1.62a1.1 1.1 0 0 0 1.65 0 1.11 1.11 0 0 0-.12-1.62zm21.87-36c-.29-.56-1-1.26-1.6-.77-1 .6-1.37 1.22-1 2s1.07.92 1.91.58a1.24 1.24 0 0 0 .69-1.78zm3.26-9c-.12-.68-1.15-1-1.85-.67a1.32 1.32 0 0 0-.87 1.67 1.45 1.45 0 0 0 2 .84c.98-.35.84-1.15.72-1.85zm3.15-9.09a1.25 1.25 0 0 0-1.85-.64 1.38 1.38 0 1 0 1.18 2.49 1.25 1.25 0 0 0 .67-1.86zm3.21-9.12c-.46-.53-1-1.15-1.91-.58s-1.06 1.08-.66 1.88a1.2 1.2 0 0 0 1.58.72c1.02-.52 1.44-1.5.99-2.03zm3.22-9c-.34-.48-.8-1.16-1.65-.75a2 2 0 0 0-1 1.94 1.34 1.34 0 0 0 1.79.68c.83-.35 1.31-1.25.85-1.89zm1.41-66.53a1.14 1.14 0 1 0-1.53 1.69 1.14 1.14 0 1 0 1.53-1.69zm-2.08-6.26a1.13 1.13 0 0 0 1.66 0 1.18 1.18 0 0 0-.13-1.68c-.6-.65-1.17-.28-1.65 0s-.35 1.25.12 1.67zM12.58 186.5a1.07 1.07 0 0 0 1.63-.05 1.1 1.1 0 0 0-.13-1.65 1 1 0 0 0-1.62.08 1 1 0 0 0 .12 1.62zm2.05 6.23a1 1 0 0 0-1.62.07 1 1 0 0 0 .1 1.62 1.14 1.14 0 1 0 1.53-1.69zm.6-45.36a1.24 1.24 0 0 0-1.84-.67 1.38 1.38 0 1 0 1.15 2.51 1.25 1.25 0 0 0 .69-1.84zm3.17-9.11a1.23 1.23 0 0 0-1.86-.61c-.76.48-1.08 1.07-.68 1.88s1.1.94 2.12.49c.84-.24.7-1.19.42-1.76zm.8-37.69l20.37-7.29L32.23 74l-20.38 7.29zm25.57 82l-1-9.56-10 .89 1 9.56zM67 145.13c-.47-.53-1-1.13-1.92-.56s-1.06 1.09-.64 1.89a1.29 1.29 0 0 0 1.92.54c.64-.35 1.09-1.36.64-1.87zm12.27-5.8a1.24 1.24 0 0 0-1.84-.67 1.38 1.38 0 1 0 1.15 2.51 1.24 1.24 0 0 0 .69-1.84zm9.07 3.19a1.2 1.2 0 0 0-1.86-.64 1.3 1.3 0 0 0-.72 1.84c.39.82 1 .94 1.89.64a1.23 1.23 0 0 0 .69-1.83zm2.56-7.29c.68-.35 1.1-1.35.64-1.86s-1-1.23-1.62-.75c-1.05.63-1.37 1.26-.94 2.07a1.28 1.28 0 0 0 1.92.55zm8.55 37.4a4.23 4.23 0 1 0-4.23 4.23 4.23 4.23 0 0 0 4.23-4.22zm1.2-36c-.13-.69-1.15-1-1.86-.64a1.33 1.33 0 0 0-.77 1.84 1.35 1.35 0 0 0 1.89.66c1.01-.35.86-1.17.73-1.86z" fill="#f5279e"/>
      <path fill="#80caa3" d="M92.62 1.09l4.27 9.89 11.67-.5-.12-2.61-9.86.41L95 0H81.19l.67 1.55 10.76-.46zM83.55 198.86l-4.27-9.88-10.76.46-3.91-9.05-2.4 1.03 4.62 10.71 10.76-.46 3.6 8.33H95l-.69-1.6-10.76.46z"/>
      <path fill="#672393" d="M33.69 173.93l1.04 9.56 10.04-.89-1.04-9.56-10.04.89zM185.86 70.59l-12-1.41L175 57.63 187 59zm-1.06-9.81l-8-.94-.8 7.59 8 .94z"/>
      <path fill="#80caa3" d="M32.23 73.99l-20.38 7.3 7.35 19.29 20.38-7.3-7.35-19.29z"/>
      <path fill="#672393" d="M73.92 12.05l-3.89-.92-4.73 19.98-19.98-4.72-.92 3.89 23.87 5.65 5.65-23.88z"/>
      <circle cx="95.21" cy="172.64" r="4.23" fill="#07b2ce"/>
      <path d="M39.39 52.23L0 44.53v-9.39a1.62 1.62 0 0 0 1.65 0 1.11 1.11 0 0 0-.07-1.58A1.15 1.15 0 0 0 0 33.4v-5.87a1 1 0 0 0 1.09-.31A1.11 1.11 0 0 0 1 25.57a.88.88 0 0 0-1-.32v-5.64a1.55 1.55 0 0 0 .56-.3 1.18 1.18 0 0 0-.14-1.67 1.14 1.14 0 0 0-.42-.3v-6a1 1 0 0 0 0-1.49V0h12.16l12.36 23.71a1 1 0 0 0-1.39.28 1 1 0 0 0 .11 1.62 1.19 1.19 0 0 0 1.68 0 1.5 1.5 0 0 0 .23-.64L32.5 39a1.79 1.79 0 0 0-.35.32 1 1 0 0 0 .15 1.61 1.16 1.16 0 0 0 1.31.19zM5.71 2.88A1.09 1.09 0 0 0 7.27 3a1.2 1.2 0 0 0 0-1.77c-.59-.65-1.16-.29-1.65 0s-.36 1.23.09 1.65zm.57 8a1.09 1.09 0 0 0 1.65-.06c.51-.57.38-1.14-.32-1.82-.41-.54-1.1-.13-1.45.26a1 1 0 0 0 .12 1.58zm.54 7.92a1.14 1.14 0 1 0 1.52-1.69 1 1 0 0 0-1.62.08 1 1 0 0 0 .1 1.58zm.54 7.91a1.06 1.06 0 0 0 1.65 0c.52-.55.4-1.13-.29-1.85-.38-.53-1-.07-1.46.24s-.36 1.15.11 1.58zm2.27 6.44c-.72-.64-1.63-.64-1.85-.15s-.55 1.14.19 1.64a1.1 1.1 0 0 0 1.65-.12 1 1 0 0 0 .01-1.4zm4.61-22.81a1.07 1.07 0 0 0 1.63-.08 1.09 1.09 0 0 0-.16-1.64 1 1 0 0 0-1.62.1 1 1 0 0 0 .16 1.59zm.53 7.92a1.14 1.14 0 1 0 1.49-1.72 1 1 0 0 0-1.62.1 1 1 0 0 0 .13 1.6zm.54 7.93a1.14 1.14 0 1 0 1.5-1.71 1.14 1.14 0 1 0-1.5 1.71zm2.05 6.22a1.14 1.14 0 1 0-1.5 1.71 1.14 1.14 0 1 0 1.5-1.71zm8-.53c-.59-.65-1.16-.29-1.65 0s-.36 1.19.1 1.62a1.09 1.09 0 0 0 1.55.11 1.2 1.2 0 0 0-.03-1.75z" fill="#07b2ce"/>
      <path d="M9 26.67c.52-.55.4-1.13-.29-1.85-.38-.53-1-.07-1.46.24s-.36 1.19.11 1.62A1.06 1.06 0 0 0 9 26.67zM.42 17.63a1.14 1.14 0 0 0-.42-.3v2.27a1.55 1.55 0 0 0 .56-.3 1.18 1.18 0 0 0-.14-1.67zM32.15 39.33a1 1 0 0 0 .15 1.61 1.16 1.16 0 0 0 1.31.19 1.33 1.33 0 0 0 .34-.29c.49-.58.35-1.15-.33-1.77A.77.77 0 0 0 32.5 39a1.79 1.79 0 0 0-.35.33zM23.68 31.89c-.47.31-.36 1.19.1 1.62a1.09 1.09 0 0 0 1.55.11 1.2 1.2 0 0 0 0-1.77c-.6-.65-1.17-.28-1.65.04zM17 26.12a1.19 1.19 0 0 0-.18-1.67 1.14 1.14 0 1 0-1.5 1.71 1.19 1.19 0 0 0 1.68-.04zM8.5 18.75a1.18 1.18 0 0 0-.15-1.67 1 1 0 0 0-1.62.08 1 1 0 0 0 .1 1.62 1.18 1.18 0 0 0 1.67-.03zM0 9.85v1.48a1 1 0 0 0 0-1.48zM40.1 38.75a1 1 0 0 0 .1 1.62 1.14 1.14 0 1 0 1.53-1.69 1 1 0 0 0-1.63.07zM31.6 31.4c-.33.41-.64 1.15-.06 1.46.79.59 1.37.64 1.86.05a1.09 1.09 0 0 0-.19-1.64 1 1 0 0 0-1.61.13zM23.13 24a1 1 0 0 0 .11 1.62 1.19 1.19 0 0 0 1.68 0 1.5 1.5 0 0 0 .23-.64 1.21 1.21 0 0 0-.4-1 1.4 1.4 0 0 0-.23-.19 1 1 0 0 0-1.39.21zM16.45 18.18a1.19 1.19 0 0 0-.19-1.67 1 1 0 0 0-1.62.1 1 1 0 0 0 .13 1.62 1.2 1.2 0 0 0 1.68-.05zM7.93 10.79c.51-.57.38-1.14-.32-1.82-.41-.54-1.1-.13-1.45.26a1 1 0 0 0 .11 1.61 1.09 1.09 0 0 0 1.66-.05zM7.78 33c-.25.52-.55 1.14.19 1.64a1.1 1.1 0 0 0 1.65-.12 1 1 0 0 0 0-1.43c-.71-.58-1.62-.58-1.84-.09zM1.09 27.22A1.11 1.11 0 0 0 1 25.57a.88.88 0 0 0-1-.32v2.28a1 1 0 0 0 1.09-.31zM15.75 32.48a1 1 0 0 0 .12 1.62 1.14 1.14 0 1 0 1.5-1.71 1 1 0 0 0-1.62.09zM21.43.21c-.25.53-.52 1.14.2 1.64a1.09 1.09 0 0 0 1.64-.13 1.07 1.07 0 0 0-.21-1.63L22.93 0h-1.32a.6.6 0 0 0-.18.21zM41.31 32.43a1.18 1.18 0 0 0-.13-1.68c-.6-.65-1.17-.28-1.65 0s-.36 1.19.11 1.62a1.13 1.13 0 0 0 1.67.06zM32.83 25a1.09 1.09 0 0 0-.15-1.64 1 1 0 0 0-1.62.1c-.34.4-.65 1.13 0 1.49.69.57 1.27.62 1.77.05zM22.58 16.06a1 1 0 0 0 .12 1.62A1.14 1.14 0 1 0 24.2 16a1 1 0 0 0-1.62.06zM15.87 10.23a1.09 1.09 0 0 0-.16-1.64 1 1 0 0 0-1.62.1 1 1 0 0 0 .15 1.62 1.07 1.07 0 0 0 1.63-.08zM7.27 3a1.2 1.2 0 0 0 0-1.77c-.59-.65-1.16-.29-1.65 0s-.36 1.2.1 1.63A1.09 1.09 0 0 0 7.27 3zM15.13.63c-.48-.4-1.39-.38-1.63.13s-.52 1.14.2 1.64a1.09 1.09 0 0 0 1.64-.13 1.07 1.07 0 0 0-.21-1.64zM32.3 17a1.06 1.06 0 0 0-.19-1.63c-.5-.42-1.37-.42-1.63.1s-.56 1.13.18 1.64A1.1 1.1 0 0 0 32.3 17zM1.65 35.15a1.11 1.11 0 0 0-.07-1.58A1.15 1.15 0 0 0 0 33.4v1.73a1.62 1.62 0 0 0 1.65.02zM23.78 9.71a1.07 1.07 0 0 0-.09-1.63 1 1 0 0 0-1.58.15c-.4.47-.62 1 0 1.51a1.08 1.08 0 0 0 1.67-.03z" fill="#ffd53e"/>
      <path d="M116.8 28.28L137.91 0H200v9.85l-.16-.18a1 1 0 0 0-1.61.13c-.33.41-.64 1.15-.07 1.46.79.59 1.36.64 1.85.08v6a1.35 1.35 0 0 0-1.23.35c-.48.33-.35 1.19.12 1.62a1.09 1.09 0 0 0 1.1.3v5.65a2.63 2.63 0 0 0-.67.35c-.48.32-.37 1.19.11 1.62a1.38 1.38 0 0 0 .56.3v5.87a.77.77 0 0 0-.11.14c-.25.42-.62 1 0 1.5l.14.1v9.39zm81-24.81a1.09 1.09 0 0 0 1.65-.06c.51-.57.38-1.14-.32-1.82-.41-.54-1.1-.13-1.45.26a1 1 0 0 0 .12 1.61zM193 26.09a1.14 1.14 0 1 0-1.48 1.73 1.14 1.14 0 1 0 1.48-1.73zm-.54-7.92a1 1 0 0 0-1.62.1c-.34.4-.65 1.13 0 1.49.74.59 1.32.64 1.82.06a1.09 1.09 0 0 0-.19-1.65zm-.57-7.95a1 1 0 0 0-1.61.13 1 1 0 0 0 .15 1.62 1.14 1.14 0 1 0 1.46-1.74zM189.9 4a1.13 1.13 0 0 0 1.56 0 1.15 1.15 0 0 0-.13-1.75c-.49-.41-1.37-.4-1.62.11s-.54 1.18.19 1.64zm-4.79 22.63c-.59-.66-1.17-.28-1.65 0s-.36 1.19.11 1.63a1.06 1.06 0 0 0 1.64 0 1.09 1.09 0 0 0-.1-1.59zm-.57-7.95a1.14 1.14 0 1 0-1.54 1.75 1.14 1.14 0 1 0 1.51-1.71zm-.54-7.87c-.59-.66-1.16-.29-1.65 0s-.36 1.2.11 1.63a1.06 1.06 0 0 0 1.64 0 1.09 1.09 0 0 0-.1-1.63zm-2-6.21a1.18 1.18 0 0 0 1.68-.12 1.13 1.13 0 0 0-.25-1.64c-.49-.4-1.38-.39-1.62.12s-.56 1.13.19 1.63zM177 27c-.4-.56-1.08-.09-1.42.29a1 1 0 0 0 .13 1.61 1.09 1.09 0 0 0 1.65-.08c.46-.55.32-1.12-.36-1.82zm-.38-7.75c-.5-.42-1.37-.42-1.63.1s-.56 1.13.18 1.64a1.1 1.1 0 0 0 1.65-.11 1.06 1.06 0 0 0-.24-1.62zm-.47-7.87a1 1 0 0 0-1.63 0 1 1 0 0 0 0 1.55 1.18 1.18 0 0 0 1.73.11 1.15 1.15 0 0 0-.14-1.66zM174 5.12a1.09 1.09 0 0 0 1.67-.12c.5-.57.37-1.14-.32-1.8-.43-.54-1.11-.14-1.46.26a1 1 0 0 0 .11 1.66zm-5.54 14.52c-.42-.57-1.1-.09-1.43.29a1 1 0 0 0 .15 1.61 1.1 1.1 0 0 0 1.65-.1c.51-.57.37-1.14-.35-1.8zm-.39-7.77c-.49-.4-1.38-.39-1.62.12s-.6 1.18.12 1.56a1.13 1.13 0 0 0 1.72 0 1.07 1.07 0 0 0-.2-1.68zm-2.17-6.33c.74.59 1.32.64 1.82.06a1.09 1.09 0 0 0-.14-1.6A1 1 0 0 0 166 4c-.38.45-.69 1.18-.09 1.53zm-5.2 14.81c-.49-.4-1.38-.39-1.63.12s-.53 1.14.2 1.64a1.09 1.09 0 0 0 1.64-.13 1.06 1.06 0 0 0-.2-1.63zm-.55-7.93c-.49-.4-1.37-.4-1.62.12s-.54 1.13.19 1.64a1.18 1.18 0 0 0 1.68-.11 1.13 1.13 0 0 0-.24-1.65zm-2-6.22a1.09 1.09 0 0 0 1.65 0 1.12 1.12 0 0 0-.18-1.7c-.61-.54-1.06-.3-1.54.27a.88.88 0 0 0 .05 1.42zm-5.35 14.7a1.14 1.14 0 1 0-1.47 1.74 1.14 1.14 0 1 0 1.47-1.74zm-.54-7.9c-.57-.54-1-.4-1.34 0-.58.67-.83 1.15-.2 1.7a1.12 1.12 0 0 0 1.71 0 1.08 1.08 0 0 0-.17-1.7zm-2.06-6.26a1.08 1.08 0 0 0 1.64 0 1.06 1.06 0 0 0-.1-1.63c-.49-.46-.94-.57-1.41 0s-.89 1.01-.13 1.63zm-6.74 14.77c-.53.59-.77 1.09-.09 1.65a1.13 1.13 0 1 0 1.53-1.66.86.86 0 0 0-1.43.01z" fill="#07b2ce"/>
      <path d="M198.77 17.68c-.48.33-.35 1.19.12 1.62a1.09 1.09 0 0 0 1.1.3v-2.27a1.35 1.35 0 0 0-1.22.35zM190.29 10.35a1 1 0 0 0 .15 1.62 1.14 1.14 0 1 0 1.46-1.74 1 1 0 0 0-1.61.12zM182 4.59a1.18 1.18 0 0 0 1.68-.12 1.13 1.13 0 0 0-.25-1.64c-.49-.4-1.38-.39-1.62.12s-.56 1.14.19 1.64zM198.22 9.8c-.33.41-.64 1.15-.07 1.46.79.59 1.36.64 1.85.08V9.85l-.16-.18a1 1 0 0 0-1.62.13zM189.9 4a1.13 1.13 0 0 0 1.56 0 1.15 1.15 0 0 0-.13-1.75c-.49-.41-1.37-.4-1.62.11s-.54 1.18.19 1.64zM151.18 21a1 1 0 0 0 .15 1.62 1.14 1.14 0 1 0 1.47-1.74 1 1 0 0 0-1.62.12zM159.08 20.47c-.25.53-.53 1.14.2 1.64a1.09 1.09 0 0 0 1.64-.13 1.06 1.06 0 0 0-.22-1.63c-.48-.41-1.38-.35-1.62.12zM175.54 27.3a1 1 0 0 0 .13 1.61 1.09 1.09 0 0 0 1.65-.08c.5-.57.37-1.14-.35-1.83-.4-.55-1.09-.08-1.43.3zM167 19.93a1 1 0 0 0 .15 1.61 1.1 1.1 0 0 0 1.65-.1c.49-.58.36-1.15-.36-1.8-.38-.57-1.06-.09-1.44.29zM158.54 12.53c-.25.52-.54 1.13.19 1.64a1.18 1.18 0 0 0 1.68-.11 1.13 1.13 0 0 0-.25-1.65c-.5-.41-1.38-.41-1.62.12zM183.47 26.71c-.48.32-.36 1.19.11 1.63a1.06 1.06 0 0 0 1.64 0 1.09 1.09 0 0 0-.11-1.65c-.59-.69-1.16-.3-1.64.02zM175 19.36c-.25.52-.56 1.13.18 1.64a1.1 1.1 0 0 0 1.65-.11 1.06 1.06 0 0 0-.19-1.63c-.55-.42-1.43-.42-1.64.1zM166.47 12c-.24.52-.6 1.18.12 1.56a1.13 1.13 0 0 0 1.72 0 1.07 1.07 0 0 0-.23-1.63c-.48-.46-1.38-.46-1.61.07zM191.39 26.2a1 1 0 0 0 .14 1.62 1.14 1.14 0 1 0 1.47-1.73 1 1 0 0 0-1.61.11zM182.92 18.81a1 1 0 0 0 .11 1.62 1.14 1.14 0 1 0 1.51-1.71 1 1 0 0 0-1.62.09zM174.48 11.38a1 1 0 0 0 0 1.55 1.18 1.18 0 0 0 1.73.11 1.15 1.15 0 0 0-.06-1.66 1 1 0 0 0-1.67 0zM165.91 5.53c.74.59 1.32.64 1.82.06a1.09 1.09 0 0 0-.15-1.59A1 1 0 0 0 166 4c-.38.45-.69 1.18-.09 1.53zM199.44 27.23a1.38 1.38 0 0 0 .56.3v-2.28a2.63 2.63 0 0 0-.67.35c-.48.33-.33 1.2.11 1.63zM190.85 18.26c-.34.4-.65 1.13 0 1.49.74.59 1.32.64 1.82.06a1.09 1.09 0 0 0-.15-1.64 1 1 0 0 0-1.67.09zM182.37 10.84c-.48.31-.36 1.2.11 1.63a1.06 1.06 0 0 0 1.64 0 1.09 1.09 0 0 0-.1-1.65c-.6-.67-1.17-.3-1.65.02zM174 5.12a1.09 1.09 0 0 0 1.67-.12c.5-.57.37-1.14-.32-1.8-.43-.54-1.11-.14-1.46.26a1 1 0 0 0 .11 1.66zM197.8 3.46a1.09 1.09 0 0 0 1.65-.06c.51-.57.38-1.14-.32-1.82-.41-.54-1.1-.13-1.45.26a1 1 0 0 0 .12 1.62zM143.37 23.16a1.13 1.13 0 1 0 1.53-1.66.86.86 0 0 0-1.44 0c-.53.6-.76 1.1-.09 1.66zM150.91 12.95c-.58.67-.83 1.15-.2 1.7a1.12 1.12 0 0 0 1.71 0 1.08 1.08 0 0 0-.17-1.64c-.56-.56-1.04-.42-1.34-.06zM158.13 6.19a1.09 1.09 0 0 0 1.65 0 1.12 1.12 0 0 0-.18-1.7c-.61-.54-1.06-.3-1.54.27a.88.88 0 0 0 .07 1.43zM150.2 6.74a1.08 1.08 0 0 0 1.64 0 1.06 1.06 0 0 0-.1-1.63c-.49-.46-.94-.57-1.41 0s-.89 1.01-.13 1.63zM199.86 35l.14.1v-1.7a.77.77 0 0 0-.11.14c-.26.46-.62.99-.03 1.46z" fill="#ffd53e"/>
      <path d="M5.57 187.38L12.16 200H0v-23.31l4.53 8.68-.05.08c-.24.52-.6 1.18 0 1.47a1.91 1.91 0 0 0 1.09.46zm1.07 5.88c-.49-.4-1.38-.39-1.62.12s-.53 1.14.2 1.64a1.18 1.18 0 0 0 1.68-.12 1.13 1.13 0 0 0-.25-1.64z" fill="#07b2ce"/>
      <path d="M5 193.38c-.25.52-.53 1.14.2 1.64a1.18 1.18 0 0 0 1.68-.12 1.13 1.13 0 0 0-.25-1.64c-.47-.4-1.36-.4-1.63.12zM21.61 200h1.32a1.25 1.25 0 0 0-1.32 0zM13 192.81a1 1 0 0 0 .1 1.62 1.14 1.14 0 1 0 1.53-1.69 1 1 0 0 0-1.63.07zM4.44 186.92a1.91 1.91 0 0 0 1.14.46 1 1 0 0 0 .74-.42 1.05 1.05 0 0 0-.22-1.63 1.16 1.16 0 0 0-1.57 0l-.05.08c-.25.59-.6 1.22-.04 1.51zM14.21 186.45a1.1 1.1 0 0 0-.13-1.65 1 1 0 0 0-1.62.08 1 1 0 0 0 .12 1.62 1.07 1.07 0 0 0 1.63-.05zM4 177.47c-.48.32-.36 1.19.12 1.62a1.1 1.1 0 0 0 1.65 0 1.11 1.11 0 0 0-.12-1.65c-.65-.67-1.21-.29-1.65.03zM5.08 171.26a1.2 1.2 0 0 0 0-1.77c-.6-.66-1.17-.27-1.65.05s-.35 1.19.12 1.62a1.08 1.08 0 0 0 1.53.1zM4.58 163.27c.34-.3 0-1.55-.51-1.93a.87.87 0 0 0-1.2.31c-.29.46-.65 1.14 0 1.52.65.53 1.19.56 1.71.1z" fill="#ffd53e"/>
      <path d="M172.41 153.78l-16.16 21.65a32.89 32.89 0 0 1-48.46-33.74 1.63 1.63 0 0 0 1.19 0c1-.35.86-1.17.73-1.85s-.78-.83-1.4-.76a32.64 32.64 0 0 1 2.34-6.61c.4.36 1 .35 1.82 0s.56-1.06.44-1.74a1 1 0 0 0-.91-.73 33.13 33.13 0 0 1 7.21-8.51l21.39-7.7a32.86 32.86 0 0 1 31.84 40zm-49.88-27.66a1.44 1.44 0 0 0 1.94.59 1.38 1.38 0 1 0-1.2-2.48 1.45 1.45 0 0 0-.73 1.89zM118.75 143c-.37-.55-1-1.27-1.7-.7-.9.44-1.19 1-.93 1.82.17.52 1.72.75 2.39.36a1.05 1.05 0 0 0 .24-1.48zm2.55-7.24a1.05 1.05 0 0 0 .58-1.64c-.39-.83-.83-1.29-1.72-.85a1.35 1.35 0 0 0-.78 1.92 1.31 1.31 0 0 0 1.92.58zm39.41 10.91a20.35 20.35 0 0 0-27.06-19.26 1.64 1.64 0 0 0-1.25 0 1.39 1.39 0 0 0-.83.84 20.39 20.39 0 1 0 29.14 18.41z" fill="#80caa3"/>
      <path d="M197.33 171.57l2.67 5.11V200h-62.09l18.34-24.57 16.16-21.65 9.21-12.34 14.7 28.19a3.2 3.2 0 0 0-.84.45c-.48.31-.36 1.19.11 1.62a1.05 1.05 0 0 0 1.65 0zm-38.21 25c-.59-.65-1.16-.29-1.65 0s-.35 1.2.1 1.63a1.13 1.13 0 0 0 1.66 0 1.18 1.18 0 0 0-.1-1.6zm5.85-6.82a1.05 1.05 0 0 0 1.65 0c.51-.56.39-1.13-.3-1.83-.4-.55-1-.08-1.47.24s-.36 1.19.15 1.62zm2 6.23a.88.88 0 0 0-1.45.13c-.49.55-.67 1-.05 1.56a1.12 1.12 0 0 0 1.71-.05A1.09 1.09 0 0 0 167 196zm5.18-14.81c.8.58 1.38.62 1.86 0a1.05 1.05 0 0 0-.21-1.63c-.49-.41-1.38-.41-1.62.11s-.59 1.23 0 1.54zm.72 8a1.09 1.09 0 0 0 1.65 0 1.12 1.12 0 0 0-.18-1.7c-.6-.54-1.06-.3-1.55.27a.88.88 0 0 0 .11 1.49zm2 6.23a1 1 0 0 0-1.61.13c-.33.41-.64 1.15-.06 1.46.79.59 1.37.64 1.86.05a1.09 1.09 0 0 0-.12-1.58zm4.27-30.53a1.1 1.1 0 0 0 1.65-.11 1.06 1.06 0 0 0-.19-1.63c-.5-.42-1.37-.42-1.63.1s-.49 1.19.25 1.7zm.55 7.93a1.1 1.1 0 0 0 1.65-.11 1.06 1.06 0 0 0-.19-1.63c-.5-.42-1.37-.42-1.63.1s-.52 1.19.25 1.7zm.5 7.87a1.1 1.1 0 0 0 1.71 0 1.09 1.09 0 0 0-.21-1.64.87.87 0 0 0-1.43.1c-.54.71-.54 1.1.01 1.6zm.56 7.94a1.13 1.13 0 0 0 1.66 0 1.18 1.18 0 0 0-.13-1.68c-.6-.65-1.17-.28-1.65 0s-.27 1.31.2 1.74zm2 6.23c-.49-.4-1.37-.4-1.62.12s-.54 1.13.19 1.64a1.18 1.18 0 0 0 1.68-.11 1.13 1.13 0 0 0-.15-1.58zm3.72-38.5a1.13 1.13 0 0 0 1.66 0 1.18 1.18 0 0 0-.14-1.68c-.61-.65-1.17-.27-1.65.05s-.25 1.29.23 1.69zm.56 8a1.14 1.14 0 1 0 1.49-1.72 1.14 1.14 0 1 0-1.49 1.72zm.53 7.9a1.09 1.09 0 0 0 1.65 0 1.11 1.11 0 0 0-.17-1.7c-.6-.54-1.06-.31-1.5.21s-.54 1 .12 1.51zm.57 8a1.14 1.14 0 1 0 1.5-1.71 1.14 1.14 0 1 0-1.5 1.71zm.56 7.94a1.14 1.14 0 1 0 1.48-1.73 1.14 1.14 0 1 0-1.48 1.73zm2 6.2a1 1 0 0 0-1.62.1 1 1 0 0 0 .15 1.62 1.07 1.07 0 0 0 1.78-.1 1.09 1.09 0 0 0-.18-1.63zm8-.5a1 1 0 0 0-1.63 0 1 1 0 0 0 0 1.55 1.18 1.18 0 0 0 1.73.11 1.15 1.15 0 0 0 .02-1.67zm-.59-8a1.14 1.14 0 1 0-1.52 1.69 1.14 1.14 0 1 0 1.52-1.69zm-.6-8c-.49-.42-1.37-.42-1.62.1s-.55 1.13.18 1.64a1.13 1.13 0 0 0 1.56 0 1.15 1.15 0 0 0 0-1.62z" fill="#07b2ce"/>
      <path d="M173.33 195.58c-.33.41-.64 1.15-.06 1.46.79.59 1.37.64 1.86.05a1.09 1.09 0 0 0-.19-1.64 1 1 0 0 0-1.61.13zM166.62 189.75c.51-.56.39-1.13-.3-1.83-.4-.55-1-.08-1.47.24s-.35 1.19.13 1.62a1.05 1.05 0 0 0 1.64-.03zM181.23 195c-.25.52-.54 1.13.19 1.64a1.18 1.18 0 0 0 1.68-.11 1.13 1.13 0 0 0-.25-1.64c-.49-.39-1.37-.39-1.62.11zM157.48 196.62c-.47.31-.35 1.2.1 1.63a1.13 1.13 0 0 0 1.66 0 1.18 1.18 0 0 0-.11-1.68c-.6-.62-1.13-.27-1.65.05zM196.6 186a1 1 0 0 0 .1 1.62 1.14 1.14 0 1 0 1.52-1.69 1 1 0 0 0-1.62.07zM189.9 180.18a1.19 1.19 0 0 0-.18-1.67 1.14 1.14 0 1 0-1.5 1.71 1.19 1.19 0 0 0 1.68-.04zM181.41 172.75a1.06 1.06 0 0 0-.19-1.63c-.5-.42-1.37-.42-1.63.1s-.56 1.13.18 1.64a1.1 1.1 0 0 0 1.64-.11zM196 178.05c-.25.52-.55 1.13.18 1.64a1.13 1.13 0 0 0 1.56 0 1.15 1.15 0 0 0-.12-1.75c-.49-.4-1.36-.4-1.62.11zM180.86 164.82a1.06 1.06 0 0 0-.19-1.63c-.5-.42-1.37-.42-1.63.1s-.56 1.13.18 1.64a1.1 1.1 0 0 0 1.64-.11zM195.59 171.71a1.05 1.05 0 0 0 1.65 0l.09-.12c.4-.52.25-1.06-.39-1.72a.53.53 0 0 0-.62-.22 3.2 3.2 0 0 0-.84.45c-.48.3-.36 1.18.11 1.61zM188.81 164.31a1.19 1.19 0 0 0-.19-1.67 1.14 1.14 0 1 0-1.49 1.72 1.19 1.19 0 0 0 1.68-.05zM188.23 156.4a1.18 1.18 0 0 0-.14-1.68c-.61-.65-1.17-.27-1.65.05s-.35 1.19.12 1.62a1.13 1.13 0 0 0 1.67.01zM194.38 154.26a1 1 0 0 0 .13 1.62 1.14 1.14 0 1 0 1.49-1.72 1 1 0 0 0-1.62.1zM194 148a1.18 1.18 0 0 0 1.68-.11 1.13 1.13 0 0 0-.25-1.64c-.49-.4-1.37-.4-1.62.12s-.55 1.1.19 1.63zM189.2 194.47a1 1 0 0 0 .15 1.62A1.07 1.07 0 0 0 191 196a1.09 1.09 0 0 0-.16-1.64 1 1 0 0 0-1.64.11zM182.49 188.69a1.18 1.18 0 0 0-.13-1.68c-.6-.65-1.17-.28-1.65 0s-.36 1.19.11 1.62a1.13 1.13 0 0 0 1.67.06zM174 181.23a1.05 1.05 0 0 0-.21-1.63c-.49-.41-1.38-.41-1.62.11s-.61 1.18 0 1.49c.83.58 1.39.62 1.83.03zM197.18 193.87a1 1 0 0 0 0 1.55 1.18 1.18 0 0 0 1.73.11 1.15 1.15 0 0 0-.06-1.66 1 1 0 0 0-1.67 0zM190.46 188.1a1.19 1.19 0 0 0-.2-1.67 1.14 1.14 0 1 0-1.48 1.73 1.2 1.2 0 0 0 1.68-.06zM195.1 162.18c-.5.57-.71 1.05-.08 1.58a1.12 1.12 0 0 0 1.71 0 1.09 1.09 0 0 0-.2-1.64.87.87 0 0 0-1.43.06zM165.55 196.13c-.49.55-.67 1-.05 1.56a1.12 1.12 0 0 0 1.71-.05A1.09 1.09 0 0 0 167 196a.88.88 0 0 0-1.45.13zM174.55 189.21a1.12 1.12 0 0 0-.18-1.7c-.6-.54-1.06-.3-1.55.27a.88.88 0 0 0 .08 1.44 1.09 1.09 0 0 0 1.65-.01zM182 180.68a1.09 1.09 0 0 0-.21-1.64.87.87 0 0 0-1.43.1c-.61.69-.61 1.09-.07 1.58a1.1 1.1 0 0 0 1.71-.04zM189.31 172.26a1.11 1.11 0 0 0-.17-1.7c-.6-.54-1.06-.31-1.5.21s-.59 1 0 1.5a1.09 1.09 0 0 0 1.67-.01z" fill="#ffd53e"/>
      <path d="M140.57 113.8l-21.39 7.7-3 1.08a1.91 1.91 0 0 0-.24-.86c-.34-.73-.8-1.12-1.67-.69a1.32 1.32 0 0 0-.78 1.84 1.26 1.26 0 0 0 .41.54l-10.4 3.74a1.13 1.13 0 0 0-1.57-.22 1.54 1.54 0 0 0-.82 1.08L57.47 143.7a1.18 1.18 0 0 0 .29-1.67c-.33-.67-.8-1.16-1.69-.69a1.31 1.31 0 0 0-.76 1.83 1.2 1.2 0 0 0 1.36.8l-11 3.95a.72.72 0 0 0-.06-.1c-.45-.53-1-1.16-1.9-.59-.69.44-1 1-.76 1.67l-21.83 7.86 2.88-4.55a1 1 0 0 0 .42-.69l19.87-32.17a2.22 2.22 0 0 0 1.48-.16c.77-.17.55-1.06.44-1.74a.84.84 0 0 0-.41-.56l19.53-31.61a1.8 1.8 0 0 0 .13.33 1.29 1.29 0 0 0 1.91.57c.7-.35 1.12-1.33.67-1.86s-.9-1-1.67-.71l4-6.44a3.91 3.91 0 0 0 .49-.18c.69-.16.67-.85.49-1.4L94 38.92l96.19 57zm-104 30.88c-.28-.57-.94-1.27-1.63-.76-1 .54-1.34 1.16-.94 2s1.06.93 1.9.62a1.23 1.23 0 0 0 .67-1.86zm3.2-9.07a1.25 1.25 0 0 0-1.85-.65 1.38 1.38 0 1 0 1.17 2.5 1.25 1.25 0 0 0 .68-1.85zm3.2-9.08a1.25 1.25 0 0 0-1.85-.65 1.38 1.38 0 1 0 1.18 2.49 1.25 1.25 0 0 0 .7-1.84zm5.88 12.27a1.25 1.25 0 0 0-1.85-.64 1.38 1.38 0 1 0 1.18 2.49 1.25 1.25 0 0 0 .66-1.85zm3.15-9.08a1.25 1.25 0 0 0-1.86-.63 1.38 1.38 0 1 0 1.2 2.48 1.25 1.25 0 0 0 .66-1.85zm3.2-9.05a1.24 1.24 0 0 0-1.8-.67 1.38 1.38 0 1 0 1.15 2.5 1.24 1.24 0 0 0 .69-1.83zm49.69-31.4c.38.84 1.07 1 2.17.54.8-.18.57-1.07.44-1.75s-1.15-1-1.86-.64a1.28 1.28 0 0 0-.71 1.85zM93.16 64.71a1.29 1.29 0 0 0 1.86.68c.75-.32 1.09-.78.64-1.59s-.67-1.46-1.73-.92a1.3 1.3 0 0 0-.77 1.83zM90 73.79a1.35 1.35 0 0 0 2 .61c.89-.41.84-1 .44-1.85a1.06 1.06 0 0 0-1.65-.61 1.32 1.32 0 0 0-.79 1.85zm-5.89-12.23a1.31 1.31 0 0 0 1.9.59c.87-.38.94-1 .69-1.47-.47-1-.88-1.47-1.79-1a1.35 1.35 0 0 0-.8 1.88zM83.6 92c.39.83 1.09 1 2.15.51.81-.21.68-1.16.41-1.74a1.23 1.23 0 0 0-1.86-.63c-.77.43-1.09 1.01-.7 1.86zm-2.7-21.31a1.37 1.37 0 0 0 1.95.52c.69-.35 1.1-1.33.65-1.86s-1-1.14-1.91-.58a1.43 1.43 0 0 0-.69 1.92zm-3.17 9.06a1.29 1.29 0 0 0 1.92.53c.68-.35 1.1-1.35.64-1.86s-1-1.23-1.79-.61a1.36 1.36 0 0 0-.77 1.93zm-19.27 31.83c-.13-.69-1.15-1-1.86-.64a1.37 1.37 0 0 0-.8 1.85 1.43 1.43 0 0 0 1.93.65c1.02-.37.87-1.18.73-1.86zm2.64 21.34c-.29-.57-.95-1.27-1.88-.61a1.3 1.3 0 0 0-.69 1.85 1.32 1.32 0 0 0 1.9.61 1.24 1.24 0 0 0 .67-1.85zm.52-30.42c-.28-.57-.95-1.27-1.63-.77-1 .54-1.34 1.16-.94 2s1.06.93 1.9.62a1.23 1.23 0 0 0 .67-1.85zm2.68 21.35a1.24 1.24 0 0 0-1.85-.65c-.78.45-1.11 1-.73 1.86s1.08 1 2.17.52c.81-.19.68-1.15.42-1.73zm.52-30.42a1.25 1.25 0 0 0-1.82-.65 1.38 1.38 0 1 0 1.17 2.5 1.25 1.25 0 0 0 .65-1.85zm2.67 21.32c-.29-.57-1-1.27-1.59-.78-1 .6-1.38 1.22-1 2s1.07.92 1.91.58a1.24 1.24 0 0 0 .68-1.8zm2.71 21.31c-.47-.53-1-1.13-1.92-.56s-1.06 1.09-.64 1.89a1.29 1.29 0 0 0 1.92.54c.67-.35 1.08-1.37.64-1.87zm.49-30.38a1.24 1.24 0 0 0-1.87-.61 1.38 1.38 0 1 0 1.24 2.46 1.24 1.24 0 0 0 .63-1.86zm2.74 21.39c-.11-.67-1.17-1-1.85-.67a1.32 1.32 0 0 0-.88 1.67 1.45 1.45 0 0 0 2 .85c.97-.36.85-1.16.73-1.86zm.51-30.43c-.12-.68-1.16-1-1.86-.66a1.29 1.29 0 0 0-.78 1.83c.37.83 1 1 1.88.68 1.02-.35.88-1.16.76-1.85zM76.58 118a1.24 1.24 0 0 0-1.85-.65c-.78.45-1.11 1-.73 1.86s1.08 1 2.17.52c.83-.22.67-1.18.41-1.73zm.55-30.35a1.23 1.23 0 0 0-1.71-.79 1.43 1.43 0 0 0-1 1.87 1.4 1.4 0 0 0 1.87.73 1.26 1.26 0 0 0 .84-1.84zm2.66 21.22c-.46-.53-1-1.14-1.91-.58a1.37 1.37 0 0 0-.75 1.74 1.4 1.4 0 0 0 2 .69c.7-.37 1.11-1.35.66-1.88zm2.68 21.34c-.46-.53-1-1.14-1.91-.57a1.43 1.43 0 0 0-.68 1.92 1.37 1.37 0 0 0 1.95.51c.67-.38 1.09-1.37.64-1.89zM83 99.77c-.46-.53-1-1.14-1.91-.57a1.43 1.43 0 0 0-.68 1.92 1.37 1.37 0 0 0 1.95.51c.64-.36 1.07-1.35.64-1.86zm2.7 21.47a1.23 1.23 0 0 0-1.7-.8 1.43 1.43 0 0 0-1 1.87 1.4 1.4 0 0 0 1.87.73 1.26 1.26 0 0 0 .82-1.8zm3.16-9.15c-.29-.57-.95-1.27-1.88-.61a1.3 1.3 0 0 0-.69 1.85 1.32 1.32 0 0 0 1.9.61 1.24 1.24 0 0 0 .65-1.86zm.52-30.42c-.28-.57-.95-1.27-1.63-.77-1 .54-1.34 1.16-.94 2s1.06.93 1.9.62a1.23 1.23 0 0 0 .65-1.85zm2.7 21.3c-.46-.53-1-1.14-1.91-.57a1.43 1.43 0 0 0-.68 1.92 1.37 1.37 0 0 0 1.94.51c.67-.36 1.08-1.34.63-1.83zm2.67 21.41a1.24 1.24 0 0 0-1.84-.67 1.38 1.38 0 1 0 1.09 2.5 1.25 1.25 0 0 0 .73-1.83zm.49-30.46c-.29-.56-1-1.26-1.6-.77-1 .6-1.37 1.22-1 2s1.07.92 1.91.58a1.24 1.24 0 0 0 .68-1.81zm2.69 21.35a1.25 1.25 0 0 0-1.86-.62 1.38 1.38 0 1 0 1.22 2.47 1.25 1.25 0 0 0 .62-1.85zM98.35 85c-.38-.81-.83-1.24-1.71-.81a1.35 1.35 0 0 0-.76 1.93 1.31 1.31 0 0 0 1.92.55 1.07 1.07 0 0 0 .55-1.67zm2.81 21.21c-.12-.68-1.15-1-1.86-.65a1.37 1.37 0 0 0-.81 1.84 1.43 1.43 0 0 0 1.92.66c1.02-.35.88-1.15.75-1.84zm.52-30.41c-.11-.67-1.16-1-1.85-.67A1.37 1.37 0 0 0 99 77a1.42 1.42 0 0 0 1.92.69c1-.38.88-1.18.76-1.88zm2.45 21.28a1.06 1.06 0 0 0-1.64-.6 1.31 1.31 0 0 0-.77 1.84 1.35 1.35 0 0 0 2 .62c.87-.41.82-1.03.41-1.85zm2.87 21.4a1.25 1.25 0 0 0-1.85-.64 1.38 1.38 0 1 0 1.18 2.49 1.25 1.25 0 0 0 .67-1.85zm3.13-8.89c-.48-1-.91-1.2-1.72-.84a1.33 1.33 0 0 0-.76 1.92 1.31 1.31 0 0 0 1.92.55 1.05 1.05 0 0 0 .55-1.63zm3.28-9.3c-.46-.52-1-1.24-1.64-.74-1 .61-1.36 1.23-.93 2.05a1.27 1.27 0 0 0 1.91.55c.69-.36 1.11-1.34.65-1.86zm5.88 12.28c-.45-.53-1-1.16-1.9-.59-.76.48-1.08 1.07-.67 1.88a1.29 1.29 0 0 0 1.91.57c.69-.36 1.11-1.33.66-1.86zm9.07 3.2c-.45-.53-1-1.16-1.9-.59-.76.48-1.08 1.07-.67 1.88a1.29 1.29 0 0 0 1.91.57c.69-.36 1.11-1.33.66-1.87z" fill="#672393"/>
      <path d="M45.76 119.2c.77-.17.55-1.06.44-1.74a.84.84 0 0 0-.41-.56 1.6 1.6 0 0 0-1.45-.1 1.28 1.28 0 0 0-.78 1.83 1.21 1.21 0 0 0 .71.72 2.22 2.22 0 0 0 1.49-.15zM58.46 111.58c-.13-.69-1.15-1-1.86-.64a1.37 1.37 0 0 0-.8 1.85 1.43 1.43 0 0 0 1.93.65c1.02-.37.87-1.18.73-1.86zM70.69 105.67a1.24 1.24 0 0 0-1.87-.61 1.38 1.38 0 1 0 1.24 2.46 1.24 1.24 0 0 0 .63-1.85zM83 99.77c-.46-.53-1-1.14-1.91-.57a1.43 1.43 0 0 0-.68 1.92 1.37 1.37 0 0 0 1.95.51c.64-.36 1.07-1.35.64-1.86zM95.23 93.92c-.29-.56-1-1.26-1.6-.77-1 .6-1.37 1.22-1 2s1.07.92 1.91.58a1.24 1.24 0 0 0 .69-1.81zM107.1 89.81c.8-.18.57-1.07.44-1.75s-1.15-1-1.86-.64a1.28 1.28 0 0 0-.76 1.84c.39.84 1.08.98 2.18.55zM16.54 137.65c-.76.48-1.08 1.07-.68 1.88s1.1.94 2.12.49c.84-.24.7-1.19.42-1.76a1.23 1.23 0 0 0-1.86-.61zM28.88 131.76a1.32 1.32 0 0 0-.87 1.67 1.45 1.45 0 0 0 2 .84c1-.35.88-1.15.76-1.85s-1.19-.97-1.89-.66zM41.11 125.88a1.38 1.38 0 1 0 1.18 2.49 1.38 1.38 0 1 0-1.18-2.49zM53.4 120a1.38 1.38 0 1 0 1.15 2.5 1.38 1.38 0 1 0-1.15-2.5zM67.49 114.75c-.29-.57-1-1.27-1.59-.78-1 .6-1.38 1.22-1 2s1.07.92 1.91.58a1.24 1.24 0 0 0 .68-1.8zM79.79 108.84c-.46-.53-1-1.14-1.91-.58a1.37 1.37 0 0 0-.75 1.74 1.4 1.4 0 0 0 2 .69c.7-.34 1.11-1.32.66-1.85zM92.06 103c-.46-.53-1-1.14-1.91-.57a1.43 1.43 0 0 0-.68 1.92 1.37 1.37 0 0 0 1.94.51c.69-.39 1.1-1.37.65-1.86zM13.39 146.71a1.38 1.38 0 1 0 1.15 2.51 1.38 1.38 0 1 0-1.15-2.51zM25.88 140.69c-1 .6-1.37 1.22-1 2s1.07.92 1.91.58a1.24 1.24 0 0 0 .63-1.85c-.23-.53-.91-1.23-1.54-.73zM37.92 135a1.38 1.38 0 1 0 1.17 2.5 1.38 1.38 0 1 0-1.17-2.5zM50.17 129.08a1.38 1.38 0 1 0 1.2 2.48 1.38 1.38 0 1 0-1.2-2.48zM62.46 123.2c-.78.45-1.11 1-.73 1.86s1.08 1 2.17.52c.8-.19.67-1.16.4-1.73a1.24 1.24 0 0 0-1.84-.65zM77 59a1.38 1.38 0 1 0-1.23-2.47A1.38 1.38 0 1 0 77 59zM72.51 65.58c-.77.49-1.06 1.09-.65 1.89a1.29 1.29 0 0 0 1.92.54c.68-.35 1.1-1.35.65-1.87s-1.02-1.14-1.92-.56zM57.08 80.52c-.78.46-1.09 1-.71 1.87s1.09 1 2.2.49c.81-.17.61-1.16.36-1.72a1.23 1.23 0 0 0-1.85-.64zM71.32 75.58a2.61 2.61 0 0 0-.13-.33 1.23 1.23 0 0 0-1.86-.61c-.77.48-1.08 1.07-.68 1.88a1.25 1.25 0 0 0 1.69.64 3.91 3.91 0 0 0 .49-.18c.69-.15.67-.85.49-1.4zM82.85 71.21c.69-.35 1.1-1.33.65-1.86s-1-1.14-1.91-.58a1.43 1.43 0 0 0-.68 1.92 1.37 1.37 0 0 0 1.94.52zM53.93 89.58a1.29 1.29 0 0 0-.77 1.84c.37.83 1 1 1.88.67 1-.34.88-1.16.75-1.85s-1.15-.98-1.86-.66zM67.37 86.17c.7-.35 1.12-1.33.67-1.86s-.9-1-1.67-.71a1.61 1.61 0 0 0-.23.12c-.65.41-1 .91-.8 1.55a1.8 1.8 0 0 0 .13.33 1.29 1.29 0 0 0 1.9.57zM79.66 80.28c.68-.35 1.1-1.35.64-1.86s-1-1.23-1.79-.61a1.36 1.36 0 0 0-.77 1.93 1.29 1.29 0 0 0 1.92.54zM50.68 98.67a1.38 1.38 0 1 0 1.22 2.47 1.38 1.38 0 1 0-1.22-2.47zM64.82 93.43a1.25 1.25 0 0 0-1.82-.65 1.38 1.38 0 1 0 1.17 2.5 1.25 1.25 0 0 0 .65-1.85zM77.13 87.62a1.23 1.23 0 0 0-1.71-.79 1.43 1.43 0 0 0-1 1.87 1.4 1.4 0 0 0 1.87.73 1.26 1.26 0 0 0 .84-1.81zM89.36 81.67c-.28-.57-.95-1.27-1.63-.77-1 .54-1.34 1.16-.94 2s1.06.93 1.9.62a1.23 1.23 0 0 0 .67-1.85zM101.68 75.81c-.11-.67-1.16-1-1.85-.67A1.37 1.37 0 0 0 99 77a1.42 1.42 0 0 0 1.92.69c1-.38.88-1.18.76-1.88zM35.19 113.63c-.77.48-1.06 1.08-.66 1.88a1.2 1.2 0 0 0 1.58.72c1-.51 1.45-1.5 1-2s-1.01-1.17-1.92-.6zM47.54 107.73a1.33 1.33 0 0 0-.78 1.84 1.35 1.35 0 0 0 1.89.67c1-.34.88-1.16.75-1.85s-1.15-.98-1.86-.66zM61.62 102.5c-.28-.57-.95-1.27-1.63-.77-1 .54-1.34 1.16-.94 2s1.06.93 1.9.62a1.23 1.23 0 0 0 .67-1.85zM73.94 96.64c-.12-.68-1.16-1-1.86-.66a1.29 1.29 0 0 0-.78 1.83c.37.83 1 1 1.88.68 1.02-.35.88-1.16.76-1.85zM83.6 92c.39.83 1.09 1 2.15.51.81-.21.68-1.16.41-1.74a1.23 1.23 0 0 0-1.86-.63c-.77.43-1.09 1.01-.7 1.86zM32 122.69a1.38 1.38 0 1 0 1.18 2.49 1.38 1.38 0 1 0-1.18-2.49zM80.55 129.62a1.43 1.43 0 0 0-.68 1.92 1.37 1.37 0 0 0 1.95.51c.68-.35 1.1-1.34.64-1.86s-1-1.19-1.91-.57zM92.89 123.71a1.38 1.38 0 1 0 1.11 2.5 1.38 1.38 0 1 0-1.15-2.51zM105.14 117.84a1.38 1.38 0 1 0 1.18 2.49 1.38 1.38 0 1 0-1.18-2.49zM119.29 112.57c-.45-.53-1-1.16-1.9-.59-.76.48-1.08 1.07-.67 1.88a1.29 1.29 0 0 0 1.91.57c.69-.36 1.11-1.33.66-1.86zM65.08 144.57c-.76.49-1.06 1.09-.64 1.89a1.29 1.29 0 0 0 1.92.54c.67-.35 1.09-1.36.64-1.87s-1-1.13-1.92-.56zM77.42 138.66a1.38 1.38 0 1 0 1.15 2.51 1.38 1.38 0 1 0-1.15-2.51zM91.54 133.38c-.46-.52-1-1.23-1.62-.75-1.05.63-1.37 1.26-.94 2.07a1.28 1.28 0 0 0 1.92.54c.68-.35 1.1-1.35.64-1.86zM101.91 126.93a1.54 1.54 0 0 0-.82 1.08 1.35 1.35 0 0 0 .05.66 1.39 1.39 0 0 0 2 .71c.7-.35 1.12-1.32.66-1.85-.11-.12-.22-.25-.34-.37a1.13 1.13 0 0 0-1.55-.23zM128.36 115.76c-.45-.53-1-1.16-1.9-.59-.76.48-1.08 1.07-.67 1.88a1.29 1.29 0 0 0 1.91.57c.69-.35 1.11-1.32.66-1.86zM86.48 141.88a1.3 1.3 0 0 0-.72 1.84c.39.82 1 .94 1.89.64a1.23 1.23 0 0 0 .69-1.83 1.2 1.2 0 0 0-1.86-.65zM98.78 136a1.33 1.33 0 0 0-.77 1.84 1.35 1.35 0 0 0 1.89.66c1-.35.87-1.17.74-1.85s-1.15-.99-1.86-.65zM112.47 132.5c.78-.17.56-1.06.44-1.74a1 1 0 0 0-.91-.76 1.61 1.61 0 0 0-.91.1 1.27 1.27 0 0 0-.77 1.84 1.46 1.46 0 0 0 .36.52c.37.36.96.36 1.79.04zM124.48 126.71a1.38 1.38 0 1 0-1.2-2.48 1.38 1.38 0 1 0 1.2 2.48zM109 141.68c1-.35.86-1.17.73-1.85s-.78-.83-1.4-.76a1.52 1.52 0 0 0-.46.12 1.31 1.31 0 0 0-.85 1.68 1.54 1.54 0 0 0 .78.83 1.63 1.63 0 0 0 1.2-.02zM131.6 129.28a1.43 1.43 0 0 0 1.93.65c1-.36.86-1.17.73-1.86a.92.92 0 0 0-.61-.65 1.64 1.64 0 0 0-1.25 0 1.39 1.39 0 0 0-.83.84 1.72 1.72 0 0 0 .03 1.02zM129.16 136.5a1.38 1.38 0 1 0 1.2 2.48 1.38 1.38 0 1 0-1.2-2.48zM138.2 139.72a1.43 1.43 0 0 0-.68 1.92 1.37 1.37 0 0 0 1.94.51c.69-.35 1.1-1.33.65-1.86s-1-1.14-1.91-.57zM74.73 117.32c-.78.45-1.11 1-.73 1.86s1.08 1 2.17.52c.8-.19.67-1.16.4-1.73a1.24 1.24 0 0 0-1.84-.65zM87 111.47a1.3 1.3 0 0 0-.69 1.85 1.32 1.32 0 0 0 1.9.61 1.24 1.24 0 0 0 .66-1.84c-.31-.58-.98-1.28-1.87-.62zM99.3 105.57a1.37 1.37 0 0 0-.81 1.84 1.43 1.43 0 0 0 1.92.66c1-.36.87-1.16.74-1.85s-1.15-.97-1.85-.65zM111.77 99.54c-1 .61-1.36 1.23-.93 2.05a1.27 1.27 0 0 0 1.91.55c.69-.35 1.11-1.33.65-1.85s-1.01-1.29-1.63-.75zM24.4 151.53a3 3 0 0 0-.07-1c-.13-.68-1.15-1-1.86-.66a1.37 1.37 0 0 0-.81 1.84 1.43 1.43 0 0 0 1.92.66 1.52 1.52 0 0 0 .39-.2 1 1 0 0 0 .43-.64zM34.94 143.91c-1 .54-1.34 1.16-.94 2s1.06.93 1.9.62a1.23 1.23 0 0 0 .67-1.84c-.29-.59-.95-1.28-1.63-.78zM47 138.15a1.38 1.38 0 1 0 1.18 2.49 1.38 1.38 0 1 0-1.18-2.49zM59.23 132.3a1.3 1.3 0 0 0-.69 1.85 1.32 1.32 0 0 0 1.9.61 1.24 1.24 0 0 0 .66-1.84c-.28-.57-.94-1.28-1.87-.62zM71.58 126.39a1.32 1.32 0 0 0-.88 1.67 1.45 1.45 0 0 0 2 .85c1-.34.88-1.15.77-1.84s-1.21-.98-1.89-.68zM84 120.44a1.43 1.43 0 0 0-1 1.87 1.4 1.4 0 0 0 1.87.73 1.26 1.26 0 0 0 .79-1.81 1.23 1.23 0 0 0-1.66-.79zM96 114.65a1.38 1.38 0 1 0 1.22 2.47 1.38 1.38 0 1 0-1.22-2.47zM68.28 135.5c-.76.49-1.06 1.09-.64 1.89a1.29 1.29 0 0 0 1.92.54c.67-.35 1.09-1.36.64-1.87s-1.02-1.13-1.92-.56zM43.76 147.24c-.69.44-1 1-.76 1.67a1.85 1.85 0 0 0 .09.22 1.29 1.29 0 0 0 1.91.57 1.39 1.39 0 0 0 .73-1.76.72.72 0 0 0-.06-.1c-.46-.54-1-1.17-1.91-.6zM80.09 49.9c.85-.35 1-.92.67-1.6-.4-.88-.84-1.38-1.79-.9a1.37 1.37 0 1 0 1.11 2.5zM86 62.16c.87-.38.94-1 .69-1.47-.47-1-.88-1.47-1.79-1a1.35 1.35 0 0 0-.8 1.91 1.31 1.31 0 0 0 1.9.56zM121.3 135.77a1.05 1.05 0 0 0 .58-1.64c-.39-.83-.83-1.29-1.72-.85a1.35 1.35 0 0 0-.78 1.92 1.31 1.31 0 0 0 1.92.57zM91.94 74.4c.89-.41.84-1 .44-1.85a1.06 1.06 0 0 0-1.65-.61 1.32 1.32 0 0 0-.73 1.85 1.35 1.35 0 0 0 1.94.61zM98.35 85c-.38-.81-.83-1.24-1.71-.81a1.35 1.35 0 0 0-.76 1.93 1.31 1.31 0 0 0 1.92.55 1.07 1.07 0 0 0 .55-1.67zM104.13 97.09a1.06 1.06 0 0 0-1.64-.6 1.31 1.31 0 0 0-.77 1.84 1.35 1.35 0 0 0 2 .62c.87-.42.82-1.04.41-1.86zM108.4 108.75a1.33 1.33 0 0 0-.76 1.92 1.31 1.31 0 0 0 1.92.55 1.05 1.05 0 0 0 .57-1.64c-.48-1-.92-1.19-1.73-.83zM115.93 121.72c-.34-.73-.8-1.12-1.67-.69a1.32 1.32 0 0 0-.78 1.84 1.26 1.26 0 0 0 .41.54 1.48 1.48 0 0 0 1.56.09c.52-.24.72-.55.72-.91a1.91 1.91 0 0 0-.24-.87zM95 65.38c.75-.32 1.09-.78.64-1.59s-.67-1.46-1.73-.92a1.3 1.3 0 0 0-.77 1.84 1.29 1.29 0 0 0 1.86.67zM38.66 104.45a2 2 0 0 0-1 1.94 1.34 1.34 0 0 0 1.79.68c.81-.33 1.29-1.23.84-1.87-.29-.48-.78-1.2-1.63-.75zM57.77 142c-.33-.67-.8-1.16-1.69-.69a1.31 1.31 0 0 0-.76 1.83 1.2 1.2 0 0 0 1.36.8 2.26 2.26 0 0 0 .49-.12 1.89 1.89 0 0 0 .3-.16 1.18 1.18 0 0 0 .3-1.66zM117.05 142.31c-.9.44-1.19 1-.93 1.82.17.52 1.72.75 2.39.36a1.05 1.05 0 0 0 .23-1.48c-.36-.55-.95-1.27-1.69-.7z" fill="#ffd53e"/>
    </pattern>
  </defs>
  <path fill="url(#a)" d="M0 0h200v400H0V0"/>
</svg>