<svg id="Layer_1" data-name="Layer 1" xmlns="http://www.w3.org/2000/svg" xmlns:xlink="http://www.w3.org/1999/xlink" viewBox="0 0 200 400"><defs><pattern id="New_Pattern_Swatch_3" data-name="New Pattern Swatch 3" width="200" height="200" patternTransform="translate(83 -16)" patternUnits="userSpaceOnUse" viewBox="0 0 200 200"><rect width="200" height="200" style="fill:none"/><path d="M200,151.38V200H103.75a26.32,26.32,0,0,0-47.09,0H20L12.7,180.82,0,185.37v-34L5,146l10,4.07,8-8.52L21,139.81,14.29,147l-10-4.06L0,147.55V82.88l9.86,2.33L15.5,61.33l-3.89-.92-4.73,20L0,78.77V17L23.3,8.65,20,0H56.65a26.33,26.33,0,1,0,47.09,0H200V78.77l-13.1-3.1L186,79.56l14,3.31v64.68l-3,3.25-10-4.06-7.36,7.86-9.13-3.72-1,2.42,10.8,4.41,7.36-7.87,10,4.07ZM149.44,44.22l32.45,7.67,7.67-32.45-32.45-7.67Zm17.32,42.73a1.46,1.46,0,1,0-.05,2.92,1.46,1.46,0,1,0,.05-2.92Zm-7.18-7.2c-1.13-.12-1.36.71-1.56,1.43s.66,1.45,1.47,1.47a1.45,1.45,0,0,0,1.62-1.39A1.51,1.51,0,0,0,159.58,79.75ZM152.31,87a1.31,1.31,0,0,0-1.45,1.48c0,.67.34,1.65,1.17,1.47,1.26-.1,1.86-.54,1.84-1.51S153.26,87,152.31,87Zm-8.65-5.75c0,.68.32,1.65,1.21,1.47,1.2-.06,1.81-.49,1.81-1.47s-.58-1.38-1.53-1.46A1.31,1.31,0,0,0,143.66,81.2ZM136.42,74c.19.71.41,1.56,1.55,1.43.95-.11,1.52-.53,1.5-1.49s-.63-1.4-1.56-1.41S136.23,73.31,136.42,74Zm-7.17,7.17a1.32,1.32,0,0,0,1.48,1.46,1.46,1.46,0,1,0,0-2.92A1.32,1.32,0,0,0,129.25,81.2Zm-5.64-8.64c-1,0-1.41.61-1.4,1.47s.23,1.48,1.3,1.43,1.52-.46,1.56-1.41S124.52,72.64,123.62,72.56Zm-7.85-29A4.23,4.23,0,1,0,120,39.33,4.23,4.23,0,0,0,115.77,43.56Zm-.95,23.3c.2.72.46,1.55,1.57,1.41.95-.12,1.51-.56,1.48-1.51s-.65-1.39-1.59-1.39S114.62,66.17,114.82,66.86Zm-7.2,7.2c.2.72.46,1.55,1.57,1.41.95-.12,1.51-.56,1.48-1.51s-.65-1.39-1.59-1.39S107.42,73.37,107.62,74.06Zm-7.16-7.27a1.32,1.32,0,0,0,1.45,1.48,1.46,1.46,0,1,0,.05-2.92A1.32,1.32,0,0,0,100.46,66.78Zm-7.2-7.2c0,.67.3,1.64,1.48,1.47.88-.05,1.53-.44,1.53-1.42s-.57-1.38-1.51-1.48A1.31,1.31,0,0,0,93.26,59.59ZM80.3,61a1.4,1.4,0,0,0,1.58-1.4c0-1-.56-1.38-1.51-1.49-1.13-.13-1.36.72-1.55,1.43S79.48,61,80.3,61Zm-7.2-7.2a1.39,1.39,0,0,0,1.58-1.21A1.54,1.54,0,0,0,73.17,51c-1.13-.13-1.36.72-1.55,1.44S72.28,53.83,73.1,53.85Zm-8.65-8.63c.11.69.33,1.65,1.3,1.44,1.06,0,1.61-.44,1.72-1.32.07-.58-1.3-1.51-2.12-1.44S64.4,44.84,64.45,45.22Zm-7,7c0,1,.2,1.61,1.25,1.6s1.67-.57,1.62-1.48A1.39,1.39,0,0,0,58.71,51,1.12,1.12,0,0,0,57.41,52.25Zm-7.35-7a1.32,1.32,0,0,0,1.48,1.45,1.46,1.46,0,1,0,0-2.91A1.32,1.32,0,0,0,50.05,45.21ZM42.82,38c.2.71.43,1.55,1.56,1.42a1.51,1.51,0,0,0,1.53-1.52,1.45,1.45,0,0,0-1.62-1.38C43.47,36.59,42.62,37.34,42.82,38Zm74.2,126a6.35,6.35,0,1,0-6.35,6.35A6.35,6.35,0,0,0,117,164.06Zm24,27.45-1-9.56-10,.89,1,9.56Zm13.6-10.69,14.84-60.2-16.6-5.35h0l23-13.27L161,96.15a1.67,1.67,0,0,0,.09-.56c0-1-.62-1.4-1.8-1.43-.65-.11-1,.36-1.13.88L139.2,87.6a1.55,1.55,0,0,0-1.25-.65,1.8,1.8,0,0,0-.39,0L88.71,67.79a1.26,1.26,0,0,0,.36-1,1.35,1.35,0,0,0-1.59-1.39c-.76,0-1.56.7-1.48,1.36L67.46,59.45c-.05-.83-.64-1.24-1.82-1.34a.69.69,0,0,0-.79.31L27,43.56,37.33,181.95l83.15-48Z" style="fill:#e8e6d9"/><path d="M68.91,200H91.49a16.26,16.26,0,0,0-22.59,0Z" style="fill:#e8e6d9"/><path d="M63.87,11.77A16.33,16.33,0,1,0,91.49,0H68.91A16.27,16.27,0,0,0,63.87,11.77Z" style="fill:#e8e6d9"/><polygon points="186.99 146.74 179.63 154.6 170.5 150.87 169.5 153.29 180.31 157.7 187.66 149.84 197.64 153.91 200 151.38 200 147.56 196.96 150.8 186.99 146.74" style="fill:#ffd53e"/><polygon points="14.97 150.12 22.95 141.59 21.03 139.81 14.29 147.01 4.32 142.95 0 147.56 0 151.38 5 146.04 14.97 150.12" style="fill:#ffd53e"/><path d="M120.48,134h0l-83.15,48L27,43.56,64.86,58.43a4.09,4.09,0,0,0-.43,1.15c-.2.71.65,1.45,1.47,1.47a1.35,1.35,0,0,0,1.58-1.4,1.92,1.92,0,0,0,0-.2L86,66.73a.72.72,0,0,0,0,.12c.21.71.42,1.64,1.2,1.46a2.44,2.44,0,0,0,1.48-.52L137.56,87a1.33,1.33,0,0,0-1.1,1.44,1.32,1.32,0,0,0,1.47,1.47,1.53,1.53,0,0,0,1.59-1.45,1.92,1.92,0,0,0-.31-.82L158.14,95a2.3,2.3,0,0,0-.08.6,1.31,1.31,0,0,0,1.5,1.43,1.49,1.49,0,0,0,1.42-.92L175.9,102l-23,13.27L92.67,95.86l9.26,12.69a1.31,1.31,0,0,0-1.47,1.45c0,.68.32,1.65,1.2,1.47s1.53-.33,1.72-.93l4.39,6a1.81,1.81,0,0,0-.12.66,1.32,1.32,0,0,0,1.5,1.45l.14,0ZM96.27,88.42c0-1-.59-1.41-1.83-1.49-.85-.18-1.17.8-1.18,1.47a1.31,1.31,0,0,0,1.47,1.46C95.67,89.79,96.26,89.38,96.27,88.42Zm7.2,7.17c0-1-.61-1.37-1.56-1.43a1.31,1.31,0,0,0-1.45,1.48c0,.67.34,1.65,1.16,1.47C102.89,97,103.49,96.56,103.47,95.58ZM145.08,97a1.39,1.39,0,0,0,1.59-1.19,1.54,1.54,0,0,0-1.49-1.7c-1.12-.13-1.37.7-1.57,1.42S144.28,97,145.08,97Zm-8.63,5.76a1.32,1.32,0,0,0,1.48,1.46,1.46,1.46,0,1,0,0-2.92A1.32,1.32,0,0,0,136.45,102.8Zm-7.2-7.2a1.32,1.32,0,0,0,1.47,1.46,1.46,1.46,0,1,0,0-2.92A1.32,1.32,0,0,0,129.25,95.6Zm-7.2-7.19a1.32,1.32,0,0,0,1.48,1.46,1.46,1.46,0,1,0,0-2.92A1.32,1.32,0,0,0,122.05,88.41Zm1.43,15.84a1.35,1.35,0,0,0,1.58-1.4c0-1-.56-1.43-1.83-1.54-.81-.19-1,.75-1.21,1.46S122.67,104.23,123.49,104.25Zm-8.63-23c0,.67.33,1.65,1.51,1.44.87-.07,1.52-.46,1.5-1.45s-.59-1.37-1.54-1.45A1.31,1.31,0,0,0,114.86,81.21Zm0,14.37a1.32,1.32,0,0,0,1.45,1.48,1.46,1.46,0,1,0,.05-2.92A1.32,1.32,0,0,0,114.86,95.59Zm-7.2-7.19a1.31,1.31,0,0,0,1.47,1.46c.95-.08,1.53-.48,1.55-1.45s-.59-1.41-1.83-1.49C108,86.75,107.67,87.73,107.66,88.4Zm-5.78-5.75a1.4,1.4,0,0,0,1.6-1.19A1.54,1.54,0,0,0,102,79.75c-1.12-.13-1.37.69-1.57,1.41S101.08,82.63,101.88,82.65ZM93.22,74c.2.72.44,1.54,1.57,1.42a1.51,1.51,0,0,0,1.52-1.52,1.45,1.45,0,0,0-1.62-1.37C93.87,72.59,93,73.35,93.22,74Zm-7.16,7.07a1.31,1.31,0,0,0,1.26,1.54c1,0,1.71-.47,1.77-1.35a1.48,1.48,0,0,0-1.45-1.55A1.33,1.33,0,0,0,86.05,81.12ZM71.62,66.83c.19.71.42,1.55,1.55,1.43,1-.1,1.43-.56,1.52-1.3a1.48,1.48,0,0,0-1.59-1.59C72.28,65.38,71.43,66.12,71.62,66.83Zm-5.73,23a1.45,1.45,0,0,0,1.62-1.39A1.51,1.51,0,0,0,66,86.95c-1.13-.12-1.36.71-1.56,1.43S65.07,89.83,65.89,89.85Zm1.58,12.94c0-1-.61-1.37-1.56-1.43a1.31,1.31,0,0,0-1.45,1.48c0,.67.34,1.65,1.17,1.47C66.89,104.2,67.49,103.76,67.47,102.78Zm-1.53,13a1.31,1.31,0,0,0-1.48,1.45c0,.68.32,1.65,1.2,1.47,1.21-.06,1.81-.49,1.81-1.47S66.89,115.84,65.94,115.75Zm-8.53,8.77c0,.78.27,1.36,1.29,1.33a1.39,1.39,0,0,0,1.58-1.41c.06-.9-.63-1.48-1.61-1.49S57.4,123.57,57.41,124.52Zm1.26-13.07c1,0,1.67-.59,1.61-1.49a1.39,1.39,0,0,0-1.58-1.41c-1,0-1.31.55-1.29,1.35C57.4,110.85,57.63,111.47,58.67,111.46Zm1.61-15.8c.06-.9-.62-1.48-1.61-1.49s-1.27.6-1.26,1.57c0,.78.27,1.35,1.29,1.33A1.39,1.39,0,0,0,60.28,95.65ZM57.41,66.83c0,.85.25,1.44,1.28,1.42a1.39,1.39,0,0,0,1.59-1.39c.07-.9-.62-1.48-1.6-1.5S57.39,65.95,57.41,66.83Zm0,14.23c0,1.18.32,1.56,1.26,1.59a1.41,1.41,0,0,0,1.61-1.48,1.39,1.39,0,0,0-1.58-1.4C57.68,79.74,57.39,80.31,57.4,81.06ZM50,88.44c.2.7.4,1.65,1.22,1.46,1.26-.11,1.86-.56,1.82-1.53A1.35,1.35,0,0,0,51.49,87C50.67,87,49.82,87.73,50,88.44ZM50,74c.19.71.41,1.56,1.55,1.43.95-.11,1.52-.53,1.5-1.49s-.63-1.4-1.56-1.41S49.83,73.31,50,74Zm1.22,27.29c-.84-.19-1,.76-1.22,1.47s.66,1.45,1.48,1.46a1.35,1.35,0,0,0,1.56-1.41C53.09,101.86,52.49,101.42,51.25,101.32ZM45.87,66.78c0-1-.63-1.4-1.56-1.41s-1.68.75-1.49,1.47.41,1.56,1.55,1.43C45.31,68.16,45.88,67.74,45.87,66.78Zm0-14.33a1.51,1.51,0,0,0-1.54-1.5c-1.13-.12-1.36.72-1.55,1.44s.66,1.44,1.48,1.46A1.45,1.45,0,0,0,45.91,52.45Zm7.16,79.2c0-1-.55-1.42-1.46-1.49s-1.39.24-1.34,1.22,0,1.7,1.23,1.67C52.45,133,53,132.61,53.07,131.66Zm0-14.37a1.51,1.51,0,0,0-1.52-1.54c-1.12-.13-1.37.69-1.57,1.41s.67,1.46,1.46,1.49A1.45,1.45,0,0,0,53.11,117.29Zm0-57.68a1.53,1.53,0,0,0-1.59-1.45,1.46,1.46,0,1,0,0,2.91A1.53,1.53,0,0,0,53.12,59.6Zm7.15,93.65c0-1-.53-1.43-1.48-1.48s-1.4.41-1.38,1.22c0,1,.18,1.7,1.3,1.67C59.66,154.64,60.24,154.2,60.27,153.25Zm0-14.45a1.39,1.39,0,0,0-1.54-1.44c-1,0-1.34.5-1.33,1.09,0,1.14.17,1.81,1.23,1.8S60.32,139.71,60.28,138.8Zm4.14-7.15c.2.71.43,1.55,1.56,1.42a1.51,1.51,0,0,0,1.53-1.52,1.45,1.45,0,0,0-1.62-1.39C65.07,130.19,64.22,130.94,64.42,131.65ZM67.52,146a1.52,1.52,0,0,0-1.6-1.44,1.46,1.46,0,1,0,0,2.92A1.53,1.53,0,0,0,67.52,146Zm0-72a1.53,1.53,0,0,0-1.58-1.46,1.46,1.46,0,1,0,0,2.92A1.53,1.53,0,0,0,67.52,74Zm7.15,64.74c0-1-.64-1.4-1.58-1.39s-1.67.79-1.47,1.49.44,1.55,1.57,1.42C74.14,140.15,74.69,139.71,74.67,138.76Zm0-14.4A1.37,1.37,0,0,0,73.08,123c-.81,0-1.66.78-1.46,1.48s.42,1.64,1.43,1.4C74.09,125.83,74.74,125.21,74.68,124.36Zm-1.54-12.89c1-.09,1.52-.5,1.53-1.46s-.6-1.41-1.82-1.47c-.87-.17-1.18.8-1.19,1.48A1.31,1.31,0,0,0,73.14,111.47Zm1.57-15.92a1.45,1.45,0,0,0-1.62-1.38c-.82,0-1.66.77-1.47,1.48s.43,1.55,1.56,1.42A1.51,1.51,0,0,0,74.71,95.55Zm0-14.35a1.53,1.53,0,0,0-1.6-1.45,1.46,1.46,0,1,0,0,2.92A1.53,1.53,0,0,0,74.72,81.2Zm7.15,50.39c0-1-.62-1.41-1.87-1.44-.89-.2-1.14.84-1.14,1.49a1.3,1.3,0,0,0,1.5,1.43C81.31,133,81.88,132.54,81.87,131.58Zm0-14.28a1.48,1.48,0,0,0-1.45-1.55,1.33,1.33,0,0,0-1.58,1.37,1.31,1.31,0,0,0,1.26,1.54C81.12,118.68,81.83,118.18,81.88,117.3Zm0-14.56a1.45,1.45,0,0,0-1.62-1.37c-.81,0-1.66.78-1.47,1.48s.44,1.55,1.57,1.42A1.51,1.51,0,0,0,81.91,102.74ZM80.37,89.85c.87-.07,1.52-.46,1.5-1.45S81.28,87,80.33,87a1.31,1.31,0,0,0-1.47,1.46C78.87,89.09,79.18,90.06,80.37,89.85ZM81.91,74a1.53,1.53,0,0,0-1.55-1.47,1.46,1.46,0,1,0-.05,2.92A1.52,1.52,0,0,0,81.91,74Zm7.16,50.36c0-1-.63-1.4-1.56-1.41s-1.68.75-1.49,1.47.41,1.57,1.55,1.43C88.51,125.76,89.08,125.34,89.07,124.38Zm-1.58-12.92c.94,0,1.55-.43,1.58-1.4s-.54-1.39-1.48-1.51c-1.13-.14-1.37.7-1.57,1.42S86.67,111.43,87.49,111.45Zm1.6-15.7a1.48,1.48,0,0,0-1.6-1.58c-.82,0-1.66.76-1.47,1.47s.43,1.55,1.56,1.42C88.55,97,89,96.49,89.09,95.75Zm4.17,7.08a1.32,1.32,0,0,0,1.51,1.44,1.46,1.46,0,1,0-.05-2.92A1.32,1.32,0,0,0,93.26,102.83Zm3,28.77c0-1-.6-1.41-1.88-1.47-.85-.21-1.12.83-1.13,1.48a1.3,1.3,0,0,0,1.48,1.45C95.69,133,96.26,132.56,96.27,131.6Zm0-14.38a1.53,1.53,0,0,0-1.57-1.47,1.46,1.46,0,1,0,0,2.92A1.53,1.53,0,0,0,96.32,117.22Zm7.15,7.23c0-1-.54-1.39-1.49-1.5-1.13-.14-1.37.71-1.56,1.42s.65,1.46,1.47,1.48S103.44,125.42,103.47,124.45Z" style="fill:#ffd53e"/><polygon points="189.57 19.44 157.12 11.77 149.44 44.22 181.89 51.9 189.57 19.44" style="fill:#744587"/><polygon points="129.98 182.84 131.03 192.4 141.07 191.51 140.02 181.95 129.98 182.84" style="fill:#ffd53e"/><polygon points="20.01 0 0 0 0 17 23.3 8.65 20.01 0" style="fill:#744587"/><polygon points="0 185.37 0 200 20.01 200 12.7 180.82 0 185.37" style="fill:#744587"/><circle cx="110.67" cy="164.06" r="6.35" style="fill:#744587"/><polygon points="15.5 61.33 11.61 60.41 6.89 80.4 0 78.77 0 82.88 9.86 85.21 15.5 61.33" style="fill:#753d5c"/><polygon points="185.98 79.56 200 82.88 200 78.77 186.9 75.67 185.98 79.56" style="fill:#753d5c"/><path d="M80.2,38.1A26.32,26.32,0,0,0,103.75,0H91.49A16.33,16.33,0,1,1,68.91,0H56.65A26.32,26.32,0,0,0,80.2,38.1Z" style="fill:#753d5c"/><path d="M80.2,185.44A26.36,26.36,0,0,0,56.65,200H68.91a16.26,16.26,0,0,1,22.59,0h12.25A26.36,26.36,0,0,0,80.2,185.44Z" style="fill:#753d5c"/><circle cx="120" cy="43.56" r="4.23" style="fill:#744587"/><polygon points="152.9 115.27 120.48 133.98 120.48 133.98 154.67 180.82 169.5 120.62 152.9 115.27" style="fill:#753d5c"/><path d="M92.67,95.86l60.23,19.41h0L120.48,134l-11.19-15.34a1.45,1.45,0,1,0-.17-2.89,1.23,1.23,0,0,0-1.35.81l-4.39-6a1.67,1.67,0,0,0,.08-.54c0-1-.58-1.38-1.53-1.46h0ZM129.22,110c.2.71.43,1.56,1.56,1.43,1-.11,1.51-.54,1.49-1.5a1.27,1.27,0,0,0-1.18-1.41C129.87,108.58,129,109.33,129.22,110ZM122,117.17c.1.61.23,1.48,1.23,1.47.74,0,1.8-.8,1.82-1.4a1.42,1.42,0,0,0-1.4-1.47C122.76,115.71,121.89,116.35,122,117.17Zm-5.74-5.72a1.41,1.41,0,0,0,1.59-1.4c0-1-.55-1.39-1.5-1.5-1.13-.14-1.37.71-1.56,1.42S115.47,111.43,116.29,111.45Zm-7.19-7.2a1.45,1.45,0,0,0,1.61-1.4,1.51,1.51,0,0,0-1.54-1.5c-1.13-.12-1.36.72-1.55,1.44S108.28,104.23,109.1,104.25Z" style="fill:#744587"/><path d="M123.49,104.25a1.35,1.35,0,0,0,1.58-1.4c0-1-.56-1.43-1.83-1.54-.81-.19-1,.75-1.21,1.46S122.67,104.23,123.49,104.25Z" style="fill:#682594"/><path d="M109.1,104.25a1.45,1.45,0,0,0,1.61-1.4,1.51,1.51,0,0,0-1.54-1.5c-1.13-.12-1.36.72-1.55,1.44S108.28,104.23,109.1,104.25Z" style="fill:#682594"/><path d="M94.76,104.27a1.46,1.46,0,1,0-.05-2.92,1.46,1.46,0,1,0,.05,2.92Z" style="fill:#682594"/><path d="M80.28,101.37c-.81,0-1.66.78-1.47,1.48s.44,1.55,1.57,1.42a1.51,1.51,0,0,0,1.52-1.53A1.45,1.45,0,0,0,80.28,101.37Z" style="fill:#682594"/><path d="M65.91,101.35a1.31,1.31,0,0,0-1.45,1.48c0,.67.34,1.65,1.17,1.47,1.26-.1,1.86-.54,1.84-1.51S66.86,101.42,65.91,101.35Z" style="fill:#682594"/><path d="M51.25,101.32c-.84-.19-1,.76-1.22,1.47s.66,1.45,1.48,1.46a1.35,1.35,0,0,0,1.56-1.41C53.09,101.86,52.49,101.42,51.25,101.32Z" style="fill:#682594"/><path d="M159.56,97.07a1.49,1.49,0,0,0,1.42-.92,1.67,1.67,0,0,0,.09-.56c0-1-.62-1.4-1.8-1.43-.65-.11-1,.36-1.13.88a2.3,2.3,0,0,0-.08.6A1.31,1.31,0,0,0,159.56,97.07Z" style="fill:#682594"/><path d="M145.08,97a1.39,1.39,0,0,0,1.59-1.19,1.54,1.54,0,0,0-1.49-1.7c-1.12-.13-1.37.7-1.57,1.42S144.28,97,145.08,97Z" style="fill:#682594"/><path d="M130.73,97.07a1.46,1.46,0,1,0,0-2.92,1.46,1.46,0,1,0,0,2.92Z" style="fill:#682594"/><path d="M116.31,97.07a1.46,1.46,0,1,0,.05-2.92,1.46,1.46,0,1,0-.05,2.92Z" style="fill:#682594"/><path d="M101.91,94.15a1.31,1.31,0,0,0-1.45,1.48c0,.67.34,1.65,1.16,1.47,1.27-.1,1.87-.54,1.85-1.51S102.86,94.22,101.91,94.15Z" style="fill:#682594"/><path d="M87.49,94.17c-.82,0-1.66.76-1.47,1.47s.43,1.55,1.56,1.42c1-.11,1.43-.57,1.51-1.32A1.48,1.48,0,0,0,87.49,94.17Z" style="fill:#682594"/><path d="M73.09,94.17c-.82,0-1.66.77-1.47,1.48s.43,1.55,1.56,1.42a1.51,1.51,0,0,0,1.53-1.52A1.45,1.45,0,0,0,73.09,94.17Z" style="fill:#682594"/><path d="M165.26,88.39a1.32,1.32,0,0,0,1.45,1.48,1.46,1.46,0,1,0,.05-2.92A1.32,1.32,0,0,0,165.26,88.39Z" style="fill:#682594"/><path d="M150.86,88.43c0,.67.34,1.65,1.17,1.47,1.26-.1,1.86-.54,1.84-1.51S153.26,87,152.31,87A1.31,1.31,0,0,0,150.86,88.43Z" style="fill:#682594"/><path d="M136.46,88.4a1.32,1.32,0,0,0,1.47,1.47,1.53,1.53,0,0,0,1.59-1.45,1.92,1.92,0,0,0-.31-.82,1.55,1.55,0,0,0-1.25-.65,1.8,1.8,0,0,0-.39,0A1.33,1.33,0,0,0,136.46,88.4Z" style="fill:#682594"/><path d="M123.54,89.87a1.46,1.46,0,1,0,0-2.92,1.46,1.46,0,1,0,0,2.92Z" style="fill:#682594"/><path d="M109.12,89.86c.95-.08,1.53-.48,1.55-1.45s-.59-1.41-1.83-1.49c-.85-.18-1.17.8-1.18,1.47A1.31,1.31,0,0,0,109.12,89.86Z" style="fill:#682594"/><path d="M65.91,144.55a1.46,1.46,0,1,0,0,2.92,1.46,1.46,0,1,0,0-2.92Z" style="fill:#682594"/><path d="M73.09,137.36c-.81,0-1.67.79-1.47,1.49s.44,1.55,1.57,1.42c1-.11,1.51-.56,1.48-1.51S74,137.36,73.09,137.36Z" style="fill:#682594"/><path d="M94.39,130.14c-.85-.21-1.12.83-1.13,1.48a1.3,1.3,0,0,0,1.48,1.45c1-.09,1.52-.5,1.53-1.46S95.67,130.2,94.39,130.14Z" style="fill:#682594"/><path d="M80,130.15c-.89-.2-1.14.84-1.14,1.49a1.3,1.3,0,0,0,1.5,1.43c1-.11,1.52-.53,1.51-1.48S81.25,130.18,80,130.15Z" style="fill:#682594"/><path d="M66,133.07a1.51,1.51,0,0,0,1.53-1.52,1.45,1.45,0,0,0-1.62-1.39c-.82,0-1.66.77-1.47,1.48S64.85,133.19,66,133.07Z" style="fill:#682594"/><path d="M102,123c-1.13-.14-1.37.71-1.56,1.42s.65,1.46,1.47,1.48,1.55-.43,1.57-1.4S102.93,123.07,102,123Z" style="fill:#682594"/><path d="M87.51,123c-.83,0-1.68.75-1.49,1.47s.41,1.57,1.55,1.43c.95-.11,1.52-.53,1.5-1.49S88.44,123,87.51,123Z" style="fill:#682594"/><path d="M73.08,123c-.81,0-1.66.78-1.46,1.48s.42,1.64,1.43,1.4c1,0,1.69-.64,1.62-1.49A1.37,1.37,0,0,0,73.08,123Z" style="fill:#682594"/><path d="M110.72,117.2a1.53,1.53,0,0,0-1.6-1.45,1.23,1.23,0,0,0-1.35.81,1.81,1.81,0,0,0-.12.66,1.32,1.32,0,0,0,1.5,1.45l.14,0A1.51,1.51,0,0,0,110.72,117.2Z" style="fill:#682594"/><path d="M94.75,115.75a1.46,1.46,0,1,0,0,2.92,1.46,1.46,0,1,0,0-2.92Z" style="fill:#682594"/><path d="M80.43,115.75a1.33,1.33,0,0,0-1.58,1.37,1.31,1.31,0,0,0,1.26,1.54c1,0,1.71-.47,1.76-1.35A1.48,1.48,0,0,0,80.43,115.75Z" style="fill:#682594"/><path d="M64.46,117.21c0,.68.32,1.65,1.2,1.47,1.21-.06,1.81-.49,1.81-1.47s-.58-1.38-1.53-1.46A1.31,1.31,0,0,0,64.46,117.21Z" style="fill:#682594"/><path d="M51.59,115.75c-1.12-.13-1.37.69-1.57,1.41s.67,1.46,1.46,1.49a1.45,1.45,0,0,0,1.63-1.36A1.51,1.51,0,0,0,51.59,115.75Z" style="fill:#682594"/><path d="M130.78,111.47c1-.11,1.51-.54,1.49-1.5a1.27,1.27,0,0,0-1.18-1.41c-1.21,0-2.06.77-1.87,1.48S129.65,111.6,130.78,111.47Z" style="fill:#682594"/><path d="M116.29,111.45a1.41,1.41,0,0,0,1.59-1.4c0-1-.55-1.39-1.5-1.5-1.13-.14-1.37.71-1.56,1.42S115.47,111.43,116.29,111.45Z" style="fill:#682594"/><path d="M101.94,108.55h0a1.31,1.31,0,0,0-1.47,1.45c0,.68.32,1.65,1.2,1.47s1.53-.33,1.72-.93a1.67,1.67,0,0,0,.08-.54C103.47,109,102.89,108.64,101.94,108.55Z" style="fill:#682594"/><path d="M87.49,111.45c.94,0,1.55-.43,1.58-1.4s-.54-1.39-1.48-1.51c-1.13-.14-1.37.7-1.57,1.42S86.67,111.43,87.49,111.45Z" style="fill:#682594"/><path d="M73.14,111.47c1-.09,1.52-.5,1.53-1.46s-.6-1.41-1.82-1.47c-.87-.17-1.18.8-1.19,1.48A1.31,1.31,0,0,0,73.14,111.47Z" style="fill:#682594"/><path d="M137.93,104.27a1.46,1.46,0,1,0,0-2.92,1.46,1.46,0,1,0,0,2.92Z" style="fill:#682594"/><path d="M94.79,75.47a1.51,1.51,0,0,0,1.52-1.52,1.45,1.45,0,0,0-1.62-1.37c-.81,0-1.66.78-1.47,1.48S93.66,75.59,94.79,75.47Z" style="fill:#682594"/><path d="M80.36,72.55a1.46,1.46,0,1,0-.05,2.92,1.46,1.46,0,1,0,.05-2.92Z" style="fill:#682594"/><path d="M65.94,72.55a1.46,1.46,0,1,0,0,2.92,1.46,1.46,0,1,0,0-2.92Z" style="fill:#682594"/><path d="M51.57,75.47c.95-.11,1.52-.53,1.5-1.49s-.63-1.4-1.56-1.41S49.83,73.31,50,74,50.43,75.6,51.57,75.47Z" style="fill:#682594"/><path d="M116.39,68.26c.95-.12,1.51-.56,1.48-1.51s-.65-1.39-1.59-1.39-1.66.8-1.47,1.49S115.27,68.4,116.39,68.26Z" style="fill:#682594"/><path d="M101.91,68.27a1.46,1.46,0,1,0,.05-2.92,1.46,1.46,0,1,0-.05,2.92Z" style="fill:#682594"/><path d="M87.22,68.31a2.44,2.44,0,0,0,1.48-.52,1.26,1.26,0,0,0,.36-1,1.35,1.35,0,0,0-1.59-1.39c-.76,0-1.56.7-1.48,1.36a.72.72,0,0,0,0,.12C86.23,67.56,86.44,68.49,87.22,68.31Z" style="fill:#682594"/><path d="M73.17,68.27c1-.1,1.43-.56,1.52-1.3a1.48,1.48,0,0,0-1.59-1.59c-.82,0-1.67.75-1.48,1.46S72,68.39,73.17,68.27Z" style="fill:#682594"/><path d="M44.31,65.36c-.83,0-1.68.75-1.49,1.47s.41,1.56,1.55,1.43c.95-.11,1.52-.53,1.5-1.49S45.24,65.37,44.31,65.36Z" style="fill:#682594"/><path d="M94.74,61.05c.88-.05,1.53-.44,1.53-1.42s-.57-1.38-1.51-1.48a1.31,1.31,0,0,0-1.5,1.43C93.25,60.26,93.56,61.23,94.74,61.05Z" style="fill:#682594"/><path d="M80.3,61a1.4,1.4,0,0,0,1.58-1.4c0-1-.56-1.38-1.51-1.49-1.13-.13-1.36.72-1.55,1.43S79.48,61,80.3,61Z" style="fill:#682594"/><path d="M65.89,61a1.35,1.35,0,0,0,1.58-1.4,1.92,1.92,0,0,0,0-.2c-.05-.83-.64-1.24-1.82-1.34a.69.69,0,0,0-.79.31,4.09,4.09,0,0,0-.43,1.15C64.22,60.28,65.07,61,65.89,61Z" style="fill:#682594"/><path d="M51.53,58.15a1.46,1.46,0,1,0,0,2.91,1.46,1.46,0,1,0,0-2.91Z" style="fill:#682594"/><path d="M73.1,53.85a1.39,1.39,0,0,0,1.58-1.21A1.54,1.54,0,0,0,73.17,51c-1.13-.13-1.36.72-1.55,1.44S72.28,53.83,73.1,53.85Z" style="fill:#682594"/><path d="M44.37,50.95c-1.13-.12-1.36.72-1.55,1.44s.66,1.44,1.48,1.46a1.45,1.45,0,0,0,1.61-1.4A1.51,1.51,0,0,0,44.37,50.95Z" style="fill:#682594"/><path d="M51.54,46.67a1.46,1.46,0,1,0,0-2.91,1.46,1.46,0,1,0,0,2.91Z" style="fill:#682594"/><path d="M44.38,39.47a1.51,1.51,0,0,0,1.53-1.52,1.45,1.45,0,0,0-1.62-1.38c-.82,0-1.66.77-1.47,1.48S43.25,39.59,44.38,39.47Z" style="fill:#682594"/><path d="M94.44,86.93c-.85-.18-1.17.8-1.18,1.47a1.31,1.31,0,0,0,1.47,1.46c.95-.08,1.53-.48,1.55-1.45S95.68,87,94.44,86.93Z" style="fill:#682594"/><path d="M80.37,89.85c.87-.07,1.52-.46,1.5-1.45S81.28,87,80.33,87a1.31,1.31,0,0,0-1.47,1.46C78.87,89.09,79.18,90.06,80.37,89.85Z" style="fill:#682594"/><path d="M65.89,89.85a1.45,1.45,0,0,0,1.62-1.39A1.51,1.51,0,0,0,66,86.95c-1.13-.12-1.36.71-1.56,1.43S65.07,89.83,65.89,89.85Z" style="fill:#682594"/><path d="M51.24,89.9c1.26-.11,1.86-.56,1.82-1.53A1.35,1.35,0,0,0,51.49,87c-.82,0-1.67.77-1.47,1.47S50.42,90.09,51.24,89.9Z" style="fill:#682594"/><path d="M158,81.18c-.19.71.66,1.45,1.47,1.47a1.45,1.45,0,0,0,1.62-1.39,1.51,1.51,0,0,0-1.53-1.51C158.45,79.63,158.21,80.46,158,81.18Z" style="fill:#682594"/><path d="M144.86,82.68c1.2-.06,1.81-.49,1.81-1.47s-.58-1.38-1.53-1.46a1.31,1.31,0,0,0-1.48,1.45C143.67,81.88,144,82.85,144.86,82.68Z" style="fill:#682594"/><path d="M130.73,82.67a1.46,1.46,0,1,0,0-2.92,1.46,1.46,0,1,0,0,2.92Z" style="fill:#682594"/><path d="M116.37,82.65c.87-.07,1.52-.46,1.5-1.45s-.59-1.37-1.54-1.45a1.31,1.31,0,0,0-1.47,1.46C114.87,81.89,115.18,82.86,116.37,82.65Z" style="fill:#682594"/><path d="M101.88,82.65a1.4,1.4,0,0,0,1.6-1.19A1.54,1.54,0,0,0,102,79.75c-1.12-.13-1.37.69-1.57,1.41S101.08,82.63,101.88,82.65Z" style="fill:#682594"/><path d="M87.32,82.66c1,0,1.71-.47,1.77-1.35a1.48,1.48,0,0,0-1.45-1.55,1.33,1.33,0,0,0-1.58,1.36A1.31,1.31,0,0,0,87.32,82.66Z" style="fill:#682594"/><path d="M73.12,79.75a1.46,1.46,0,1,0,0,2.92,1.46,1.46,0,1,0,0-2.92Z" style="fill:#682594"/><path d="M109.19,75.46c.95-.12,1.51-.56,1.48-1.51s-.65-1.39-1.59-1.39-1.66.8-1.47,1.49S108.07,75.6,109.19,75.46Z" style="fill:#682594"/><path d="M138,75.47c.95-.11,1.52-.53,1.5-1.49s-.63-1.4-1.56-1.41-1.68.75-1.49,1.47S136.83,75.6,138,75.47Z" style="fill:#682594"/><path d="M58.78,151.76c-1-.06-1.4.41-1.38,1.22,0,1,.18,1.7,1.3,1.67,1,0,1.54-.46,1.56-1.41S59.74,151.82,58.78,151.76Z" style="fill:#682594"/><path d="M58.73,137.36c-1,0-1.34.5-1.33,1.09,0,1.14.17,1.81,1.23,1.8s1.68-.55,1.64-1.46A1.39,1.39,0,0,0,58.73,137.36Z" style="fill:#682594"/><path d="M58.66,53.85c1,0,1.67-.57,1.62-1.48A1.39,1.39,0,0,0,58.71,51a1.12,1.12,0,0,0-1.31,1.29C57.4,53.23,57.61,53.87,58.66,53.85Z" style="fill:#682594"/><path d="M58.7,125.86a1.39,1.39,0,0,0,1.58-1.41c.06-.9-.63-1.48-1.61-1.49s-1.27.6-1.26,1.56C57.39,125.3,57.68,125.88,58.7,125.86Z" style="fill:#682594"/><path d="M58.67,111.46c1,0,1.67-.59,1.61-1.49a1.39,1.39,0,0,0-1.58-1.41c-1,0-1.31.55-1.29,1.35C57.4,110.85,57.63,111.47,58.67,111.46Z" style="fill:#682594"/><path d="M58.67,94.16c-1,0-1.27.6-1.26,1.57,0,.78.27,1.35,1.29,1.33a1.39,1.39,0,0,0,1.58-1.4C60.34,94.75,59.65,94.18,58.67,94.16Z" style="fill:#682594"/><path d="M58.67,82.65a1.41,1.41,0,0,0,1.61-1.48,1.39,1.39,0,0,0-1.58-1.4c-1,0-1.31.55-1.29,1.3C57.4,82.25,57.73,82.63,58.67,82.65Z" style="fill:#682594"/><path d="M58.69,68.26a1.39,1.39,0,0,0,1.59-1.39c.07-.9-.62-1.48-1.6-1.5s-1.28.59-1.27,1.47S57.66,68.27,58.69,68.26Z" style="fill:#682594"/><path d="M51.61,130.16c-.87,0-1.39.24-1.34,1.22s0,1.7,1.23,1.67c1,0,1.53-.45,1.57-1.4S52.52,130.24,51.61,130.16Z" style="fill:#682594"/><path d="M123.26,118.64c.74,0,1.8-.8,1.82-1.4a1.42,1.42,0,0,0-1.4-1.47c-.92-.06-1.8.58-1.66,1.4C122.13,117.78,122.26,118.65,123.26,118.64Z" style="fill:#692694"/><path d="M122.21,74c0,.79.23,1.48,1.3,1.43s1.52-.46,1.56-1.41-.55-1.41-1.45-1.49S122.21,73.17,122.21,74Z" style="fill:#682594"/><path d="M65.75,46.66c1.06,0,1.61-.44,1.72-1.32.07-.58-1.3-1.51-2.12-1.44s-1,.93-.9,1.31C64.56,45.91,64.79,46.86,65.75,46.66Z" style="fill:#682694"/></pattern></defs><title>Artboard 1</title><rect width="200" height="400" style="fill:url(#New_Pattern_Swatch_3)"/></svg>